<?xml version="1.0" encoding="utf-8"?>
<!-- Generator: Adobe Illustrator 23.0.3, SVG Export Plug-In . SVG Version: 6.00 Build 0)  -->
<svg version="1.1" id="Layer_1" xmlns="http://www.w3.org/2000/svg" xmlns:xlink="http://www.w3.org/1999/xlink" x="0px" y="0px"
	 viewBox="0 0 1321 697" style="enable-background:new 0 0 1321 697;" xml:space="preserve">
<style type="text/css">
	.st0{fill:#1F1F1F;}
	.st1{fill:#22419C;}
	.st2{fill-rule:evenodd;clip-rule:evenodd;fill:#22419C;}
	.st3{fill:#85BA32;}
	.st4{fill-rule:evenodd;clip-rule:evenodd;fill:#85BA32;}
</style>
<g>
	<g>
		<path class="st0" d="M39.6,656.1c-0.2-0.2-0.3-0.3-0.6-0.3c-0.2-0.1-0.5-0.1-0.7-0.1h-2.7c-0.4,0-0.8,0-1.1,0.1
			c-0.3,0.1-0.6,0.2-0.9,0.4c-0.3,0.2-0.5,0.5-0.7,0.8c-0.2,0.3-0.4,0.8-0.6,1.2L23,681h-0.1l-9-22.8c-0.1-0.4-0.3-0.8-0.5-1.1
			c-0.2-0.3-0.4-0.6-0.7-0.8c-0.3-0.2-0.6-0.4-1-0.5c-0.4-0.1-0.9-0.1-1.4-0.1H7.7c-0.4,0-0.8,0.1-1.2,0.4c-0.4,0.3-0.5,0.8-0.5,1.5
			v29c0,0.1,0,0.2,0.1,0.3c0.1,0.1,0.2,0.2,0.3,0.2c0.2,0.1,0.4,0.1,0.6,0.1c0.3,0,0.6,0.1,1,0.1c0.4,0,0.8,0,1-0.1
			c0.3,0,0.5-0.1,0.7-0.1c0.2-0.1,0.3-0.1,0.4-0.2c0.1-0.1,0.1-0.2,0.1-0.3V659h0l10.6,27.6c0,0.1,0.1,0.2,0.2,0.3
			c0.1,0.1,0.2,0.2,0.4,0.2c0.2,0.1,0.4,0.1,0.6,0.1c0.2,0,0.5,0.1,0.9,0.1c0.3,0,0.6,0,0.8,0c0.2,0,0.4-0.1,0.6-0.1
			c0.2-0.1,0.3-0.1,0.4-0.2c0.1-0.1,0.2-0.2,0.2-0.3L35.9,659h0v27.4c0,0.1,0,0.2,0.1,0.3c0.1,0.1,0.2,0.2,0.3,0.2
			c0.2,0.1,0.4,0.1,0.7,0.1c0.3,0,0.6,0.1,1,0.1c0.4,0,0.8,0,1-0.1s0.5-0.1,0.6-0.1c0.2-0.1,0.3-0.1,0.4-0.2
			c0.1-0.1,0.1-0.2,0.1-0.3v-29c0-0.3,0-0.6-0.1-0.9C39.9,656.4,39.8,656.2,39.6,656.1z M65.9,665.6c-0.7-0.7-1.6-1.2-2.7-1.6
			c-1.1-0.4-2.4-0.5-4-0.5c-0.8,0-1.7,0.1-2.5,0.2c-0.8,0.2-1.6,0.3-2.3,0.6c-0.7,0.2-1.3,0.5-1.8,0.8c-0.5,0.3-0.9,0.5-1.1,0.7
			c-0.2,0.2-0.4,0.4-0.4,0.7c-0.1,0.2-0.1,0.6-0.1,1c0,0.2,0,0.5,0.1,0.7c0,0.2,0.1,0.4,0.2,0.5c0.1,0.1,0.2,0.2,0.3,0.3
			c0.1,0.1,0.2,0.1,0.3,0.1c0.2,0,0.5-0.1,0.9-0.4c0.4-0.2,0.9-0.5,1.5-0.8c0.6-0.3,1.3-0.5,2.1-0.8c0.8-0.2,1.7-0.4,2.7-0.4
			c0.9,0,1.7,0.1,2.3,0.3c0.6,0.2,1.1,0.5,1.5,1c0.4,0.4,0.7,1,0.9,1.6c0.2,0.6,0.3,1.4,0.3,2.2v1.7h-3c-1.7,0-3.2,0.1-4.6,0.4
			c-1.4,0.3-2.5,0.8-3.5,1.4c-0.9,0.6-1.7,1.4-2.2,2.3c-0.5,0.9-0.8,2-0.8,3.2c0,1.1,0.2,2,0.5,2.8c0.4,0.8,0.9,1.5,1.5,2.1
			c0.7,0.6,1.5,1,2.4,1.3c0.9,0.3,2,0.5,3.1,0.5c1.3,0,2.6-0.3,3.7-0.9c1.2-0.6,2.2-1.4,3.2-2.4v2.2c0,0.2,0.1,0.3,0.2,0.4
			c0.1,0.1,0.3,0.2,0.5,0.2c0.3,0,0.6,0.1,1,0.1c0.4,0,0.8,0,1-0.1c0.2-0.1,0.4-0.1,0.5-0.2c0.1-0.1,0.2-0.2,0.2-0.4v-14.8
			c0-1.4-0.2-2.6-0.5-3.6C67.1,667.2,66.6,666.3,65.9,665.6z M63.9,681.2c-1,1.1-1.9,1.9-2.8,2.5c-0.9,0.5-1.9,0.8-2.9,0.8
			c-1.3,0-2.3-0.3-3-1c-0.7-0.7-1.1-1.6-1.1-2.7c0-0.7,0.1-1.3,0.4-1.8c0.3-0.5,0.6-1,1.2-1.3c0.5-0.4,1.2-0.6,2-0.8
			c0.8-0.2,1.8-0.3,2.9-0.3h3.4V681.2z M82.1,664c-0.1-0.1-0.3-0.1-0.6-0.1c-0.3,0-0.6-0.1-1-0.1c-0.4,0-0.7,0-1,0.1
			c-0.3,0-0.5,0.1-0.6,0.1c-0.2,0.1-0.3,0.1-0.3,0.2c-0.1,0.1-0.1,0.2-0.1,0.3v21.9c0,0.1,0,0.2,0.1,0.3c0.1,0.1,0.2,0.2,0.3,0.2
			c0.2,0.1,0.4,0.1,0.6,0.1c0.3,0,0.6,0.1,1,0.1c0.4,0,0.7,0,1-0.1c0.3,0,0.5-0.1,0.6-0.1c0.1-0.1,0.3-0.1,0.3-0.2
			c0.1-0.1,0.1-0.2,0.1-0.3v-21.9c0-0.1,0-0.2-0.1-0.3C82.4,664.2,82.3,664.1,82.1,664z M80.5,654.8c-1,0-1.6,0.2-2,0.5
			c-0.4,0.3-0.5,1-0.5,1.9c0,0.9,0.2,1.6,0.5,1.9c0.3,0.3,1,0.5,1.9,0.5c1,0,1.6-0.2,2-0.5c0.4-0.3,0.5-1,0.5-1.9
			c0-0.9-0.2-1.6-0.5-1.9C82.1,655,81.5,654.8,80.5,654.8z M110.4,666.2c-0.6-0.8-1.4-1.5-2.4-2c-1-0.5-2.2-0.7-3.7-0.7
			c-1.3,0-2.5,0.3-3.7,1c-1.2,0.6-2.5,1.7-3.7,3v-2.9c0-0.1,0-0.2-0.1-0.3c-0.1-0.1-0.2-0.2-0.3-0.2c-0.1-0.1-0.3-0.1-0.5-0.1
			c-0.2,0-0.5,0-0.9,0c-0.4,0-0.7,0-0.9,0c-0.2,0-0.4,0.1-0.6,0.1c-0.1,0.1-0.2,0.2-0.3,0.2c0,0.1-0.1,0.2-0.1,0.3v21.9
			c0,0.1,0,0.2,0.1,0.3c0.1,0.1,0.2,0.2,0.3,0.2c0.2,0.1,0.4,0.1,0.6,0.1c0.3,0,0.6,0.1,1,0.1c0.4,0,0.7,0,1-0.1
			c0.3,0,0.5-0.1,0.6-0.1c0.1-0.1,0.3-0.1,0.3-0.2c0.1-0.1,0.1-0.2,0.1-0.3v-15.3c1.1-1.4,2.2-2.4,3.2-3.1c1-0.7,2-1.1,3-1.1
			c0.8,0,1.5,0.1,2.1,0.4c0.6,0.3,1.1,0.7,1.4,1.3c0.4,0.6,0.7,1.2,0.9,2c0.2,0.8,0.3,1.8,0.3,3v12.8c0,0.1,0,0.2,0.1,0.3
			c0.1,0.1,0.2,0.2,0.3,0.2c0.1,0.1,0.3,0.1,0.6,0.1c0.3,0,0.6,0.1,1,0.1c0.4,0,0.7,0,1-0.1c0.3,0,0.5-0.1,0.6-0.1
			c0.1-0.1,0.3-0.1,0.3-0.2c0.1-0.1,0.1-0.2,0.1-0.3v-13.4c0-1.6-0.1-2.9-0.4-4C111.4,668,111,667.1,110.4,666.2z M132.9,667.3
			c0.2,0,0.4-0.1,0.6-0.4c0.1-0.3,0.2-0.7,0.2-1.3c0-0.3,0-0.6,0-0.8c0-0.2-0.1-0.4-0.2-0.5c-0.1-0.1-0.2-0.2-0.3-0.3
			c-0.1-0.1-0.2-0.1-0.3-0.1h-5.6v-5.2c0-0.1,0-0.2-0.1-0.3c-0.1-0.1-0.2-0.2-0.3-0.3c-0.1-0.1-0.3-0.1-0.6-0.2c-0.3,0-0.6,0-1,0
			c-0.4,0-0.7,0-1,0c-0.3,0-0.5,0.1-0.6,0.2c-0.2,0.1-0.3,0.2-0.3,0.3c-0.1,0.1-0.1,0.2-0.1,0.3v5.2h-3c-0.1,0-0.2,0-0.4,0.1
			c-0.1,0.1-0.2,0.2-0.3,0.3c-0.1,0.1-0.1,0.3-0.2,0.5c0,0.2-0.1,0.5-0.1,0.8c0,0.6,0.1,1,0.2,1.3c0.1,0.3,0.3,0.4,0.6,0.4h3.1v12.8
			c0,1.3,0.1,2.4,0.4,3.3c0.2,0.9,0.6,1.7,1.1,2.3c0.5,0.6,1.2,1.1,2,1.4c0.8,0.3,1.8,0.5,2.9,0.5c0.4,0,0.7,0,1.1-0.1
			c0.4-0.1,0.7-0.1,1.1-0.2c0.3-0.1,0.6-0.2,0.9-0.3c0.3-0.1,0.5-0.2,0.6-0.4c0.1-0.1,0.2-0.3,0.3-0.6c0.1-0.3,0.1-0.6,0.1-1.1
			c0-0.3,0-0.5,0-0.7c0-0.2-0.1-0.3-0.1-0.5c0-0.1-0.1-0.2-0.2-0.2c-0.1,0-0.2-0.1-0.2-0.1c-0.1,0-0.3,0-0.4,0.1
			c-0.2,0.1-0.4,0.2-0.6,0.2c-0.2,0.1-0.5,0.2-0.8,0.2c-0.3,0.1-0.6,0.1-1,0.1c-1.2,0-2-0.4-2.4-1.2c-0.4-0.8-0.7-1.9-0.7-3.4v-12.2
			H132.9z M156.2,665.6c-0.7-0.7-1.6-1.2-2.7-1.6c-1.1-0.4-2.4-0.5-4-0.5c-0.8,0-1.7,0.1-2.5,0.2c-0.8,0.2-1.6,0.3-2.3,0.6
			c-0.7,0.2-1.3,0.5-1.9,0.8c-0.5,0.3-0.9,0.5-1.1,0.7c-0.2,0.2-0.4,0.4-0.4,0.7c-0.1,0.2-0.1,0.6-0.1,1c0,0.2,0,0.5,0,0.7
			c0,0.2,0.1,0.4,0.2,0.5c0.1,0.1,0.2,0.2,0.3,0.3c0.1,0.1,0.2,0.1,0.3,0.1c0.2,0,0.5-0.1,0.9-0.4c0.4-0.2,0.9-0.5,1.5-0.8
			c0.6-0.3,1.3-0.5,2.1-0.8c0.8-0.2,1.7-0.4,2.7-0.4c0.9,0,1.7,0.1,2.3,0.3c0.6,0.2,1.1,0.5,1.5,1c0.4,0.4,0.7,1,0.9,1.6
			c0.2,0.6,0.3,1.4,0.3,2.2v1.7h-3c-1.7,0-3.2,0.1-4.6,0.4c-1.4,0.3-2.5,0.8-3.5,1.4c-0.9,0.6-1.7,1.4-2.2,2.3
			c-0.5,0.9-0.8,2-0.8,3.2c0,1.1,0.2,2,0.5,2.8c0.4,0.8,0.9,1.5,1.5,2.1c0.7,0.6,1.5,1,2.4,1.3c0.9,0.3,2,0.5,3.1,0.5
			c1.3,0,2.6-0.3,3.7-0.9c1.2-0.6,2.2-1.4,3.2-2.4v2.2c0,0.2,0.1,0.3,0.2,0.4c0.1,0.1,0.3,0.2,0.5,0.2c0.3,0,0.6,0.1,1,0.1
			c0.4,0,0.8,0,1-0.1c0.2-0.1,0.4-0.1,0.5-0.2c0.1-0.1,0.2-0.2,0.2-0.4v-14.8c0-1.4-0.2-2.6-0.5-3.6
			C157.4,667.2,156.9,666.3,156.2,665.6z M154.2,681.2c-1,1.1-1.9,1.9-2.8,2.5c-0.9,0.5-1.9,0.8-2.9,0.8c-1.3,0-2.3-0.3-3-1
			c-0.7-0.7-1.1-1.6-1.1-2.7c0-0.7,0.1-1.3,0.4-1.8c0.3-0.5,0.6-1,1.2-1.3c0.5-0.4,1.2-0.6,2-0.8c0.8-0.2,1.8-0.3,2.9-0.3h3.4V681.2
			z M172.4,664c-0.1-0.1-0.3-0.1-0.6-0.1c-0.3,0-0.6-0.1-1-0.1c-0.4,0-0.7,0-1,0.1c-0.3,0-0.5,0.1-0.6,0.1c-0.2,0.1-0.3,0.1-0.3,0.2
			c-0.1,0.1-0.1,0.2-0.1,0.3v21.9c0,0.1,0,0.2,0.1,0.3c0.1,0.1,0.2,0.2,0.3,0.2c0.2,0.1,0.4,0.1,0.6,0.1c0.3,0,0.6,0.1,1,0.1
			c0.4,0,0.7,0,1-0.1c0.3,0,0.5-0.1,0.6-0.1c0.1-0.1,0.3-0.1,0.3-0.2c0.1-0.1,0.1-0.2,0.1-0.3v-21.9c0-0.1,0-0.2-0.1-0.3
			C172.7,664.2,172.6,664.1,172.4,664z M170.8,654.8c-1,0-1.6,0.2-2,0.5c-0.4,0.3-0.5,1-0.5,1.9c0,0.9,0.2,1.6,0.5,1.9
			c0.3,0.3,1,0.5,1.9,0.5c1,0,1.6-0.2,2-0.5c0.4-0.3,0.5-1,0.5-1.9c0-0.9-0.2-1.6-0.5-1.9C172.4,655,171.8,654.8,170.8,654.8z
			 M200.7,666.2c-0.6-0.8-1.4-1.5-2.4-2c-1-0.5-2.2-0.7-3.7-0.7c-1.3,0-2.5,0.3-3.7,1c-1.2,0.6-2.5,1.7-3.7,3v-2.9
			c0-0.1,0-0.2-0.1-0.3c-0.1-0.1-0.2-0.2-0.3-0.2c-0.1-0.1-0.3-0.1-0.5-0.1c-0.2,0-0.5,0-0.9,0c-0.4,0-0.7,0-0.9,0
			c-0.2,0-0.4,0.1-0.6,0.1c-0.1,0.1-0.2,0.2-0.3,0.2c0,0.1-0.1,0.2-0.1,0.3v21.9c0,0.1,0,0.2,0.1,0.3c0.1,0.1,0.2,0.2,0.3,0.2
			c0.2,0.1,0.4,0.1,0.6,0.1c0.3,0,0.6,0.1,1,0.1c0.4,0,0.7,0,1-0.1c0.3,0,0.5-0.1,0.6-0.1c0.1-0.1,0.3-0.1,0.3-0.2
			c0.1-0.1,0.1-0.2,0.1-0.3v-15.3c1.1-1.4,2.2-2.4,3.2-3.1c1-0.7,2-1.1,3-1.1c0.8,0,1.5,0.1,2.1,0.4c0.6,0.3,1.1,0.7,1.4,1.3
			c0.4,0.6,0.7,1.2,0.9,2c0.2,0.8,0.3,1.8,0.3,3v12.8c0,0.1,0,0.2,0.1,0.3c0.1,0.1,0.2,0.2,0.3,0.2c0.1,0.1,0.3,0.1,0.6,0.1
			c0.3,0,0.6,0.1,1,0.1c0.4,0,0.7,0,1-0.1c0.3,0,0.5-0.1,0.6-0.1c0.1-0.1,0.3-0.1,0.3-0.2c0.1-0.1,0.1-0.2,0.1-0.3v-13.4
			c0-1.6-0.1-2.9-0.4-4C201.7,668,201.3,667.1,200.7,666.2z M246.5,655.5c-0.3,0-0.8-0.1-1.4-0.1c-0.4,0-0.8,0-1,0s-0.5,0.1-0.6,0.1
			c-0.2,0.1-0.3,0.1-0.4,0.3c-0.1,0.1-0.2,0.3-0.2,0.4l-4.4,9.1c-0.4,0.9-0.8,1.8-1.2,2.7c-0.4,0.9-0.8,1.8-1.1,2.8h0
			c-0.4-1-0.8-1.9-1.2-2.8c-0.4-0.9-0.8-1.8-1.2-2.7l-4.4-9.1c-0.1-0.2-0.2-0.3-0.3-0.4c-0.1-0.1-0.2-0.2-0.4-0.2
			c-0.2-0.1-0.4-0.1-0.7-0.1c-0.3,0-0.7,0-1.2,0c-0.5,0-1,0-1.3,0c-0.3,0-0.5,0.1-0.7,0.2c-0.1,0.1-0.2,0.3-0.1,0.5
			c0,0.2,0.2,0.5,0.3,0.9l8.9,17.8v11.6c0,0.1,0,0.2,0.1,0.3c0.1,0.1,0.2,0.2,0.4,0.2c0.2,0.1,0.4,0.1,0.7,0.1c0.3,0,0.6,0.1,1,0.1
			c0.4,0,0.7,0,1-0.1c0.3,0,0.5-0.1,0.7-0.1c0.2-0.1,0.3-0.1,0.3-0.2c0.1-0.1,0.1-0.2,0.1-0.3v-11.6l8.9-17.8
			c0.2-0.4,0.3-0.6,0.3-0.9c0-0.2,0-0.4-0.1-0.5C247.1,655.6,246.8,655.6,246.5,655.5z M269.1,666.6c-0.9-1-2-1.8-3.3-2.3
			c-1.3-0.5-2.9-0.8-4.7-0.8c-1.9,0-3.5,0.3-4.9,0.9c-1.4,0.6-2.6,1.4-3.5,2.5c-0.9,1.1-1.6,2.4-2.1,3.9c-0.5,1.5-0.7,3.1-0.7,4.9
			c0,1.9,0.2,3.5,0.7,5c0.4,1.5,1.1,2.7,2,3.7c0.9,1,2,1.8,3.3,2.3c1.3,0.5,2.9,0.8,4.7,0.8c1.8,0,3.5-0.3,4.9-0.9
			c1.4-0.6,2.6-1.5,3.5-2.5c0.9-1.1,1.6-2.4,2.1-3.9c0.5-1.5,0.7-3.1,0.7-4.9c0-1.8-0.2-3.5-0.7-4.9
			C270.7,668.9,270,667.7,269.1,666.6z M267.3,679.1c-0.3,1.1-0.7,2-1.2,2.7c-0.6,0.8-1.3,1.4-2.1,1.8c-0.9,0.4-1.9,0.6-3.1,0.6
			c-1.3,0-2.4-0.2-3.2-0.7c-0.9-0.5-1.6-1.1-2.1-1.9c-0.5-0.8-0.9-1.7-1.1-2.8c-0.2-1.1-0.3-2.2-0.3-3.4c0-1.2,0.1-2.4,0.4-3.5
			c0.3-1.1,0.7-2,1.2-2.7c0.6-0.8,1.3-1.4,2.1-1.8c0.9-0.4,1.9-0.6,3.1-0.6c1.3,0,2.4,0.2,3.2,0.7c0.9,0.5,1.6,1.1,2.1,1.9
			c0.5,0.8,0.9,1.7,1.1,2.8c0.2,1.1,0.3,2.2,0.3,3.4C267.7,676.8,267.5,678,267.3,679.1z M299.4,664c-0.1-0.1-0.3-0.1-0.6-0.1
			c-0.3,0-0.6,0-1,0c-0.4,0-0.7,0-1,0c-0.3,0-0.5,0.1-0.6,0.1c-0.2,0.1-0.3,0.2-0.3,0.2c-0.1,0.1-0.1,0.2-0.1,0.3v15.3
			c-1.1,1.4-2.2,2.4-3.2,3.1c-1,0.7-2,1.1-3,1.1c-0.8,0-1.5-0.1-2-0.5c-0.6-0.3-1.1-0.7-1.4-1.3c-0.4-0.5-0.7-1.2-0.9-2
			c-0.2-0.8-0.3-1.8-0.3-3.1v-12.8c0-0.1,0-0.2-0.1-0.3c-0.1-0.1-0.2-0.2-0.3-0.2c-0.2-0.1-0.4-0.1-0.6-0.1c-0.3,0-0.6,0-1,0
			c-0.4,0-0.7,0-1,0c-0.3,0-0.5,0.1-0.6,0.1c-0.2,0.1-0.3,0.2-0.3,0.2c-0.1,0.1-0.1,0.2-0.1,0.3v13.3c0,1.6,0.1,2.9,0.4,4.1
			c0.3,1.1,0.7,2.1,1.3,2.9c0.6,0.8,1.4,1.5,2.4,2c1,0.5,2.2,0.7,3.7,0.7c1.2,0,2.5-0.3,3.7-0.9c1.2-0.6,2.4-1.6,3.7-3v2.9
			c0,0.1,0,0.2,0.1,0.3c0,0.1,0.1,0.2,0.3,0.2c0.1,0.1,0.3,0.1,0.6,0.1c0.2,0,0.5,0.1,0.9,0.1c0.3,0,0.6,0,0.9-0.1
			c0.2,0,0.4-0.1,0.6-0.1c0.1-0.1,0.2-0.1,0.3-0.2c0.1-0.1,0.1-0.2,0.1-0.3v-21.9c0-0.1,0-0.2-0.1-0.3
			C299.6,664.2,299.5,664.1,299.4,664z M323.2,664.6c0-0.1-0.1-0.2-0.1-0.3c0-0.1-0.1-0.2-0.2-0.2c-0.1-0.1-0.3-0.2-0.5-0.2
			c-0.2-0.1-0.5-0.2-0.8-0.2c-0.3-0.1-0.6-0.1-0.8-0.1c-0.3,0-0.5,0-0.7,0c-0.5,0-0.9,0.1-1.4,0.2c-0.5,0.1-0.9,0.3-1.4,0.7
			c-0.5,0.3-1,0.8-1.5,1.3c-0.5,0.6-1.1,1.3-1.7,2.1v-3.2c0-0.1,0-0.2-0.1-0.3c-0.1-0.1-0.2-0.2-0.3-0.2c-0.1-0.1-0.3-0.1-0.5-0.1
			c-0.2,0-0.5,0-0.9,0c-0.4,0-0.7,0-0.9,0c-0.2,0-0.4,0.1-0.6,0.1c-0.1,0.1-0.2,0.2-0.3,0.2c0,0.1-0.1,0.2-0.1,0.3v21.9
			c0,0.1,0,0.2,0.1,0.3c0.1,0.1,0.2,0.2,0.3,0.2c0.2,0.1,0.4,0.1,0.6,0.1c0.3,0,0.6,0.1,1,0.1c0.4,0,0.7,0,1-0.1
			c0.3,0,0.5-0.1,0.6-0.1c0.1-0.1,0.3-0.1,0.3-0.2c0.1-0.1,0.1-0.2,0.1-0.3v-14.4c0.6-0.9,1.1-1.6,1.6-2.3c0.5-0.6,0.9-1.1,1.4-1.5
			c0.4-0.4,0.8-0.6,1.2-0.8c0.4-0.2,0.8-0.2,1.2-0.2c0.3,0,0.7,0,0.9,0.1c0.3,0.1,0.6,0.1,0.8,0.2c0.2,0.1,0.4,0.1,0.6,0.2
			c0.2,0.1,0.3,0.1,0.5,0.1c0.1,0,0.2,0,0.3-0.1c0.1-0.1,0.1-0.2,0.2-0.3c0-0.1,0.1-0.3,0.1-0.6c0-0.2,0-0.5,0-0.9
			c0-0.4,0-0.7,0-0.9C323.3,664.9,323.3,664.8,323.2,664.6z M368.4,655.7c-0.2-0.1-0.4-0.1-0.6-0.1c-0.3,0-0.6-0.1-1-0.1
			c-0.4,0-0.8,0-1,0.1c-0.3,0-0.5,0.1-0.6,0.1c-0.2,0.1-0.3,0.1-0.3,0.2c-0.1,0.1-0.1,0.2-0.1,0.3v12.6h-14.3v-12.6
			c0-0.1,0-0.2-0.1-0.3c-0.1-0.1-0.2-0.2-0.3-0.2c-0.2-0.1-0.4-0.1-0.6-0.1c-0.3,0-0.6-0.1-1-0.1c-0.4,0-0.7,0-1,0.1
			c-0.3,0-0.5,0.1-0.7,0.1c-0.2,0.1-0.3,0.1-0.3,0.2c-0.1,0.1-0.1,0.2-0.1,0.3v30.2c0,0.1,0,0.2,0.1,0.3c0.1,0.1,0.2,0.2,0.3,0.2
			c0.2,0.1,0.4,0.1,0.7,0.1c0.3,0,0.6,0.1,1,0.1c0.4,0,0.7,0,1-0.1s0.5-0.1,0.6-0.1c0.2-0.1,0.3-0.1,0.3-0.2
			c0.1-0.1,0.1-0.2,0.1-0.3v-14h14.3v14c0,0.1,0,0.2,0.1,0.3c0.1,0.1,0.2,0.2,0.3,0.2c0.2,0.1,0.4,0.1,0.6,0.1c0.3,0,0.6,0.1,1,0.1
			c0.4,0,0.7,0,1-0.1c0.3,0,0.5-0.1,0.6-0.1c0.2-0.1,0.3-0.1,0.3-0.2c0.1-0.1,0.1-0.2,0.1-0.3v-30.2c0-0.1,0-0.2-0.1-0.3
			C368.7,655.8,368.6,655.7,368.4,655.7z M396.5,666.6c-0.8-0.9-1.8-1.7-3-2.2c-1.2-0.6-2.7-0.8-4.4-0.8c-1.6,0-3.1,0.3-4.4,0.8
			c-1.3,0.6-2.4,1.4-3.3,2.4c-0.9,1-1.6,2.3-2.1,3.8c-0.5,1.5-0.7,3.2-0.7,5.1c0,2,0.2,3.7,0.7,5.2c0.5,1.5,1.2,2.7,2.1,3.7
			c0.9,1,2.1,1.7,3.4,2.2c1.4,0.5,2.9,0.8,4.7,0.8c1,0,2-0.1,2.9-0.2c0.9-0.2,1.7-0.3,2.4-0.5c0.7-0.2,1.3-0.4,1.7-0.6
			c0.4-0.2,0.7-0.4,0.8-0.4c0.1-0.1,0.2-0.2,0.2-0.3c0.1-0.1,0.1-0.2,0.1-0.3c0-0.1,0-0.3,0.1-0.4c0-0.2,0-0.3,0-0.5
			c0-0.3,0-0.5,0-0.7c0-0.2-0.1-0.4-0.1-0.5c0-0.1-0.1-0.2-0.2-0.3c-0.1-0.1-0.2-0.1-0.3-0.1c-0.2,0-0.5,0.1-0.9,0.3
			c-0.4,0.2-0.9,0.4-1.5,0.6c-0.6,0.2-1.3,0.4-2.1,0.6c-0.8,0.2-1.7,0.3-2.8,0.3c-1.3,0-2.4-0.2-3.4-0.6c-0.9-0.4-1.7-0.9-2.2-1.6
			c-0.6-0.7-1-1.5-1.2-2.5c-0.2-1-0.4-2.1-0.4-3.3h14.4c0.4,0,0.8-0.1,1.1-0.4c0.3-0.3,0.5-0.7,0.5-1.4v-0.7c0-1.4-0.2-2.8-0.5-4
			C397.9,668.6,397.3,667.5,396.5,666.6z M382.8,673.4c0-0.9,0.2-1.7,0.5-2.6c0.3-0.8,0.7-1.5,1.2-2.2c0.5-0.6,1.1-1.1,1.9-1.5
			c0.8-0.4,1.6-0.6,2.6-0.6c1.9,0,3.4,0.6,4.4,1.8c1,1.2,1.5,2.9,1.4,5H382.8z M422.7,665.6c-0.7-0.7-1.6-1.2-2.7-1.6
			c-1.1-0.4-2.4-0.5-4-0.5c-0.8,0-1.7,0.1-2.5,0.2c-0.8,0.2-1.6,0.3-2.3,0.6c-0.7,0.2-1.3,0.5-1.8,0.8c-0.5,0.3-0.9,0.5-1.1,0.7
			c-0.2,0.2-0.4,0.4-0.4,0.7c-0.1,0.2-0.1,0.6-0.1,1c0,0.2,0,0.5,0,0.7c0,0.2,0.1,0.4,0.2,0.5c0.1,0.1,0.2,0.2,0.3,0.3
			c0.1,0.1,0.2,0.1,0.3,0.1c0.2,0,0.5-0.1,0.9-0.4c0.4-0.2,0.9-0.5,1.5-0.8c0.6-0.3,1.3-0.5,2.1-0.8c0.8-0.2,1.7-0.4,2.7-0.4
			c0.9,0,1.7,0.1,2.3,0.3c0.6,0.2,1.1,0.5,1.5,1c0.4,0.4,0.7,1,0.9,1.6c0.2,0.6,0.3,1.4,0.3,2.2v1.7h-3c-1.7,0-3.2,0.1-4.6,0.4
			c-1.4,0.3-2.5,0.8-3.5,1.4c-0.9,0.6-1.7,1.4-2.2,2.3c-0.5,0.9-0.8,2-0.8,3.2c0,1.1,0.2,2,0.5,2.8c0.4,0.8,0.9,1.5,1.5,2.1
			c0.7,0.6,1.5,1,2.4,1.3c0.9,0.3,2,0.5,3.1,0.5c1.3,0,2.6-0.3,3.7-0.9c1.2-0.6,2.2-1.4,3.2-2.4v2.2c0,0.2,0.1,0.3,0.2,0.4
			c0.1,0.1,0.3,0.2,0.5,0.2c0.3,0,0.6,0.1,1,0.1c0.4,0,0.8,0,1-0.1c0.2-0.1,0.4-0.1,0.5-0.2c0.1-0.1,0.2-0.2,0.2-0.4v-14.8
			c0-1.4-0.2-2.6-0.5-3.6C423.9,667.2,423.4,666.3,422.7,665.6z M420.7,681.2c-1,1.1-1.9,1.9-2.8,2.5c-0.9,0.5-1.9,0.8-2.9,0.8
			c-1.3,0-2.3-0.3-3-1c-0.7-0.7-1.1-1.6-1.1-2.7c0-0.7,0.1-1.3,0.4-1.8c0.3-0.5,0.6-1,1.2-1.3c0.5-0.4,1.2-0.6,2-0.8
			c0.8-0.2,1.8-0.3,2.9-0.3h3.4V681.2z M438.9,653.4c-0.1-0.1-0.3-0.1-0.6-0.1c-0.3,0-0.6-0.1-1-0.1c-0.4,0-0.7,0-1,0.1
			c-0.3,0-0.5,0.1-0.6,0.1c-0.2,0.1-0.3,0.1-0.3,0.2c-0.1,0.1-0.1,0.2-0.1,0.3v32.5c0,0.1,0,0.2,0.1,0.3c0.1,0.1,0.2,0.2,0.3,0.2
			c0.2,0.1,0.4,0.1,0.6,0.1c0.3,0,0.6,0.1,1,0.1c0.4,0,0.7,0,1-0.1c0.3,0,0.5-0.1,0.6-0.1c0.1-0.1,0.3-0.1,0.3-0.2
			c0.1-0.1,0.1-0.2,0.1-0.3V654c0-0.1,0-0.2-0.1-0.3C439.2,653.5,439.1,653.5,438.9,653.4z M460.7,667.3c0.2,0,0.4-0.1,0.6-0.4
			c0.1-0.3,0.2-0.7,0.2-1.3c0-0.3,0-0.6,0-0.8c0-0.2-0.1-0.4-0.2-0.5c-0.1-0.1-0.2-0.2-0.3-0.3c-0.1-0.1-0.2-0.1-0.3-0.1H455v-5.2
			c0-0.1,0-0.2-0.1-0.3c-0.1-0.1-0.2-0.2-0.3-0.3c-0.1-0.1-0.3-0.1-0.6-0.2c-0.3,0-0.6,0-1,0c-0.4,0-0.7,0-1,0
			c-0.3,0-0.5,0.1-0.6,0.2c-0.2,0.1-0.3,0.2-0.3,0.3c-0.1,0.1-0.1,0.2-0.1,0.3v5.2h-3c-0.1,0-0.2,0-0.4,0.1
			c-0.1,0.1-0.2,0.2-0.3,0.3c-0.1,0.1-0.1,0.3-0.2,0.5c0,0.2-0.1,0.5-0.1,0.8c0,0.6,0.1,1,0.2,1.3c0.1,0.3,0.3,0.4,0.6,0.4h3.1v12.8
			c0,1.3,0.1,2.4,0.4,3.3c0.2,0.9,0.6,1.7,1.1,2.3c0.5,0.6,1.2,1.1,2,1.4s1.8,0.5,2.9,0.5c0.4,0,0.7,0,1.1-0.1
			c0.4-0.1,0.7-0.1,1.1-0.2c0.3-0.1,0.6-0.2,0.9-0.3c0.3-0.1,0.5-0.2,0.6-0.4c0.1-0.1,0.2-0.3,0.3-0.6c0.1-0.3,0.1-0.6,0.1-1.1
			c0-0.3,0-0.5,0-0.7c0-0.2-0.1-0.3-0.1-0.5c0-0.1-0.1-0.2-0.2-0.2c-0.1,0-0.1-0.1-0.2-0.1c-0.1,0-0.3,0-0.4,0.1
			c-0.2,0.1-0.4,0.2-0.6,0.2c-0.2,0.1-0.5,0.2-0.8,0.2c-0.3,0.1-0.6,0.1-1,0.1c-1.2,0-2-0.4-2.4-1.2c-0.4-0.8-0.7-1.9-0.7-3.4v-12.2
			H460.7z M487.2,666.2c-0.6-0.8-1.4-1.5-2.4-2c-1-0.5-2.2-0.7-3.7-0.7c-1.2,0-2.4,0.3-3.5,0.9c-1.2,0.6-2.3,1.5-3.5,2.7V654
			c0-0.1,0-0.2-0.1-0.3c-0.1-0.1-0.2-0.2-0.3-0.2c-0.1-0.1-0.3-0.1-0.6-0.1c-0.3,0-0.6-0.1-1-0.1c-0.4,0-0.7,0-1,0.1
			c-0.3,0-0.5,0.1-0.6,0.1c-0.2,0.1-0.3,0.1-0.3,0.2c-0.1,0.1-0.1,0.2-0.1,0.3v32.5c0,0.1,0,0.2,0.1,0.3c0.1,0.1,0.2,0.2,0.3,0.2
			c0.2,0.1,0.4,0.1,0.6,0.1c0.3,0,0.6,0.1,1,0.1c0.4,0,0.7,0,1-0.1c0.3,0,0.5-0.1,0.6-0.1c0.1-0.1,0.3-0.1,0.3-0.2
			c0.1-0.1,0.1-0.2,0.1-0.3v-15.3c1.1-1.4,2.2-2.4,3.2-3.1c1-0.7,2-1.1,3-1.1c0.8,0,1.5,0.1,2.1,0.4c0.6,0.3,1.1,0.7,1.4,1.3
			c0.4,0.6,0.7,1.2,0.9,2c0.2,0.8,0.3,1.8,0.3,3v12.8c0,0.1,0,0.2,0.1,0.3c0.1,0.1,0.2,0.2,0.3,0.2c0.1,0.1,0.3,0.1,0.6,0.1
			c0.3,0,0.6,0.1,1,0.1c0.4,0,0.7,0,1-0.1c0.3,0,0.5-0.1,0.6-0.1c0.1-0.1,0.3-0.1,0.3-0.2c0.1-0.1,0.1-0.2,0.1-0.3v-13.3
			c0-1.6-0.1-2.9-0.4-4C488.3,668,487.8,667.1,487.2,666.2z M524.7,667.3c0.2,0,0.4-0.1,0.6-0.4c0.1-0.3,0.2-0.7,0.2-1.3
			c0-0.3,0-0.6,0-0.8c0-0.2-0.1-0.4-0.2-0.5c-0.1-0.1-0.2-0.2-0.3-0.3c-0.1-0.1-0.2-0.1-0.3-0.1h-5.6v-5.2c0-0.1,0-0.2-0.1-0.3
			c-0.1-0.1-0.2-0.2-0.3-0.3c-0.1-0.1-0.3-0.1-0.6-0.2c-0.3,0-0.6,0-1,0c-0.4,0-0.7,0-1,0c-0.3,0-0.5,0.1-0.6,0.2
			c-0.2,0.1-0.3,0.2-0.3,0.3c-0.1,0.1-0.1,0.2-0.1,0.3v5.2h-3c-0.1,0-0.2,0-0.4,0.1c-0.1,0.1-0.2,0.2-0.3,0.3
			c-0.1,0.1-0.1,0.3-0.2,0.5c0,0.2-0.1,0.5-0.1,0.8c0,0.6,0.1,1,0.2,1.3c0.1,0.3,0.3,0.4,0.6,0.4h3.1v12.8c0,1.3,0.1,2.4,0.4,3.3
			c0.2,0.9,0.6,1.7,1.1,2.3c0.5,0.6,1.2,1.1,2,1.4c0.8,0.3,1.8,0.5,2.9,0.5c0.4,0,0.7,0,1.1-0.1c0.4-0.1,0.7-0.1,1.1-0.2
			c0.3-0.1,0.6-0.2,0.9-0.3c0.3-0.1,0.5-0.2,0.6-0.4c0.1-0.1,0.2-0.3,0.3-0.6c0.1-0.3,0.1-0.6,0.1-1.1c0-0.3,0-0.5,0-0.7
			c0-0.2-0.1-0.3-0.1-0.5c0-0.1-0.1-0.2-0.2-0.2c-0.1,0-0.2-0.1-0.2-0.1c-0.1,0-0.3,0-0.4,0.1c-0.2,0.1-0.4,0.2-0.6,0.2
			c-0.2,0.1-0.5,0.2-0.8,0.2s-0.6,0.1-1,0.1c-1.2,0-2-0.4-2.4-1.2c-0.4-0.8-0.7-1.9-0.7-3.4v-12.2H524.7z M551.3,666.6
			c-0.9-1-2-1.8-3.3-2.3c-1.3-0.5-2.9-0.8-4.7-0.8c-1.9,0-3.5,0.3-4.9,0.9c-1.4,0.6-2.6,1.4-3.5,2.5c-0.9,1.1-1.6,2.4-2.1,3.9
			c-0.5,1.5-0.7,3.1-0.7,4.9c0,1.9,0.2,3.5,0.7,5c0.4,1.5,1.1,2.7,2,3.7c0.9,1,2,1.8,3.3,2.3c1.3,0.5,2.9,0.8,4.7,0.8
			c1.8,0,3.5-0.3,4.9-0.9c1.4-0.6,2.6-1.5,3.5-2.5c0.9-1.1,1.6-2.4,2.1-3.9c0.5-1.5,0.7-3.1,0.7-4.9c0-1.8-0.2-3.5-0.7-4.9
			C552.9,668.9,552.2,667.7,551.3,666.6z M549.4,679.1c-0.3,1.1-0.7,2-1.2,2.7c-0.6,0.8-1.3,1.4-2.1,1.8c-0.9,0.4-1.9,0.6-3.1,0.6
			c-1.3,0-2.4-0.2-3.2-0.7c-0.9-0.5-1.6-1.1-2.1-1.9c-0.5-0.8-0.9-1.7-1.1-2.8c-0.2-1.1-0.3-2.2-0.3-3.4c0-1.2,0.1-2.4,0.4-3.5
			c0.3-1.1,0.7-2,1.2-2.7c0.6-0.8,1.3-1.4,2.1-1.8c0.9-0.4,1.9-0.6,3.1-0.6c1.3,0,2.4,0.2,3.2,0.7c0.9,0.5,1.6,1.1,2.1,1.9
			c0.5,0.8,0.9,1.7,1.1,2.8c0.2,1.1,0.3,2.2,0.3,3.4C549.8,676.8,549.7,678,549.4,679.1z M595.5,684c-0.1-0.1-0.2-0.2-0.3-0.3
			c-0.1-0.1-0.2-0.1-0.4-0.1h-12.5v-11.3H593c0.1,0,0.2,0,0.4-0.1c0.1-0.1,0.2-0.2,0.3-0.3c0.1-0.1,0.1-0.3,0.2-0.5
			c0-0.2,0-0.5,0-0.8c0-0.3,0-0.6,0-0.8c0-0.2-0.1-0.4-0.2-0.5c-0.1-0.1-0.2-0.2-0.3-0.3c-0.1-0.1-0.2-0.1-0.4-0.1h-10.6v-9.9h12.3
			c0.1,0,0.2,0,0.4-0.1c0.1-0.1,0.2-0.2,0.3-0.3c0.1-0.1,0.1-0.3,0.2-0.5c0-0.2,0.1-0.5,0.1-0.8c0-0.3,0-0.6-0.1-0.8
			c0-0.2-0.1-0.4-0.2-0.5c-0.1-0.1-0.1-0.3-0.3-0.3c-0.1-0.1-0.2-0.1-0.4-0.1h-14.9c-0.4,0-0.7,0.1-1.1,0.4
			c-0.3,0.3-0.5,0.7-0.5,1.3v28.1c0,0.6,0.2,1.1,0.5,1.3c0.3,0.3,0.7,0.4,1.1,0.4h15.1c0.1,0,0.2,0,0.4-0.1c0.1-0.1,0.2-0.2,0.3-0.3
			c0.1-0.1,0.1-0.3,0.2-0.6c0-0.2,0-0.5,0-0.8c0-0.3,0-0.6,0-0.8C595.6,684.4,595.6,684.2,595.5,684z M622.5,666.2
			c-0.6-0.8-1.4-1.5-2.4-2c-1-0.5-2.2-0.7-3.7-0.7c-1.2,0-2.5,0.3-3.7,1c-1.2,0.6-2.5,1.7-3.7,3v-2.9c0-0.1,0-0.2-0.1-0.3
			c-0.1-0.1-0.1-0.2-0.3-0.2c-0.1-0.1-0.3-0.1-0.5-0.1c-0.2,0-0.5,0-0.9,0c-0.4,0-0.7,0-0.9,0c-0.2,0-0.4,0.1-0.6,0.1
			c-0.1,0.1-0.2,0.2-0.3,0.2c0,0.1-0.1,0.2-0.1,0.3v21.9c0,0.1,0,0.2,0.1,0.3c0.1,0.1,0.2,0.2,0.3,0.2c0.2,0.1,0.4,0.1,0.6,0.1
			c0.3,0,0.6,0.1,1,0.1c0.4,0,0.7,0,1-0.1c0.3,0,0.5-0.1,0.6-0.1c0.1-0.1,0.3-0.1,0.3-0.2c0.1-0.1,0.1-0.2,0.1-0.3v-15.3
			c1.1-1.4,2.2-2.4,3.2-3.1c1-0.7,2-1.1,3-1.1c0.8,0,1.5,0.1,2.1,0.4c0.6,0.3,1.1,0.7,1.4,1.3c0.4,0.6,0.7,1.2,0.9,2
			c0.2,0.8,0.3,1.8,0.3,3v12.8c0,0.1,0,0.2,0.1,0.3c0.1,0.1,0.2,0.2,0.3,0.2c0.1,0.1,0.3,0.1,0.6,0.1c0.3,0,0.6,0.1,1,0.1
			c0.4,0,0.7,0,1-0.1c0.3,0,0.5-0.1,0.6-0.1c0.1-0.1,0.3-0.1,0.3-0.2c0.1-0.1,0.1-0.2,0.1-0.3v-13.4c0-1.6-0.1-2.9-0.4-4
			C623.6,668,623.1,667.1,622.5,666.2z M637.3,654.8c-1,0-1.6,0.2-2,0.5c-0.3,0.3-0.5,1-0.5,1.9c0,0.9,0.2,1.6,0.5,1.9
			c0.3,0.3,1,0.5,1.9,0.5c1,0,1.6-0.2,2-0.5c0.4-0.3,0.5-1,0.5-1.9c0-0.9-0.2-1.6-0.5-1.9C638.9,655,638.3,654.8,637.3,654.8z
			 M638.9,664c-0.2-0.1-0.4-0.1-0.6-0.1c-0.3,0-0.6-0.1-1-0.1c-0.4,0-0.7,0-1,0.1c-0.3,0-0.5,0.1-0.6,0.1c-0.2,0.1-0.3,0.1-0.3,0.2
			c-0.1,0.1-0.1,0.2-0.1,0.3v22.9c0,1.2-0.1,2.1-0.2,2.7c-0.1,0.6-0.3,1.1-0.5,1.4c-0.2,0.4-0.6,0.6-0.9,0.8
			c-0.4,0.2-0.8,0.2-1.4,0.2c-0.4,0-0.7,0-1-0.1c-0.3,0-0.5-0.1-0.6-0.1c-0.1,0-0.2,0-0.3,0.1c-0.1,0.1-0.1,0.2-0.2,0.3
			c-0.1,0.1-0.1,0.3-0.1,0.5c0,0.2,0,0.5,0,0.8c0,0.2,0,0.4,0,0.5c0,0.1,0,0.3,0.1,0.4c0,0.1,0.1,0.3,0.2,0.4
			c0.1,0.1,0.2,0.2,0.4,0.3c0.2,0.1,0.5,0.2,0.8,0.2c0.4,0.1,0.8,0.1,1.3,0.1c1.2,0,2.1-0.2,2.9-0.5c0.8-0.3,1.5-0.9,2-1.5
			c0.5-0.7,0.9-1.5,1.1-2.5c0.2-1,0.4-2.3,0.4-3.9v-22.9c0-0.1,0-0.2-0.1-0.3C639.2,664.2,639.1,664.1,638.9,664z M667.8,666.6
			c-0.9-1-2-1.8-3.3-2.3c-1.3-0.5-2.9-0.8-4.7-0.8c-1.9,0-3.5,0.3-4.9,0.9c-1.4,0.6-2.6,1.4-3.5,2.5c-0.9,1.1-1.6,2.4-2.1,3.9
			c-0.5,1.5-0.7,3.1-0.7,4.9c0,1.9,0.2,3.5,0.7,5c0.4,1.5,1.1,2.7,2,3.7c0.9,1,2,1.8,3.3,2.3c1.3,0.5,2.9,0.8,4.7,0.8
			c1.8,0,3.5-0.3,4.9-0.9c1.4-0.6,2.6-1.5,3.5-2.5c0.9-1.1,1.6-2.4,2.1-3.9c0.5-1.5,0.7-3.1,0.7-4.9c0-1.8-0.2-3.5-0.7-4.9
			C669.3,668.9,668.7,667.7,667.8,666.6z M665.9,679.1c-0.3,1.1-0.7,2-1.2,2.7c-0.6,0.8-1.3,1.4-2.1,1.8c-0.9,0.4-1.9,0.6-3.1,0.6
			c-1.3,0-2.4-0.2-3.2-0.7c-0.9-0.5-1.6-1.1-2.1-1.9c-0.5-0.8-0.9-1.7-1.1-2.8c-0.2-1.1-0.3-2.2-0.3-3.4c0-1.2,0.1-2.4,0.4-3.5
			c0.3-1.1,0.7-2,1.2-2.7c0.6-0.8,1.3-1.4,2.1-1.8c0.9-0.4,1.9-0.6,3.1-0.6c1.3,0,2.4,0.2,3.2,0.7c0.9,0.5,1.6,1.1,2.1,1.9
			c0.5,0.8,0.9,1.7,1.1,2.8c0.2,1.1,0.3,2.2,0.3,3.4C666.3,676.8,666.2,678,665.9,679.1z M696.5,663.9c-0.3,0-0.7-0.1-1.1-0.1
			c-0.5,0-0.9,0-1.2,0.1c-0.3,0-0.5,0.1-0.6,0.2c-0.1,0.1-0.3,0.3-0.4,0.6l-6,17.7h-0.1l-6.3-17.6c-0.1-0.2-0.2-0.4-0.2-0.5
			c-0.1-0.1-0.2-0.2-0.4-0.3c-0.2-0.1-0.4-0.1-0.7-0.1c-0.3,0-0.7,0-1.1,0s-0.9,0-1.2,0.1c-0.3,0-0.5,0.1-0.6,0.2
			c-0.1,0.1-0.2,0.3-0.2,0.5c0,0.2,0.1,0.5,0.2,0.8l7.8,20.9c0,0.2,0.1,0.3,0.3,0.5c0.1,0.1,0.3,0.3,0.4,0.3l-3,7.6
			c-0.1,0.2-0.1,0.4-0.1,0.6c0,0.2,0.1,0.3,0.2,0.4c0.1,0.1,0.3,0.2,0.6,0.2c0.3,0,0.6,0.1,1,0.1c0.8,0,1.4-0.1,1.8-0.2
			c0.4-0.1,0.6-0.3,0.7-0.6l2.9-8.1l7.9-21.8c0.1-0.3,0.1-0.5,0.1-0.7c0-0.2-0.1-0.3-0.2-0.5C697,664,696.8,663.9,696.5,663.9z
			 M738.7,655.5c-0.3,0-0.8-0.1-1.4-0.1c-0.4,0-0.8,0-1,0c-0.3,0-0.5,0.1-0.6,0.1c-0.2,0.1-0.3,0.1-0.4,0.3
			c-0.1,0.1-0.2,0.3-0.2,0.4l-4.4,9.1c-0.4,0.9-0.8,1.8-1.2,2.7c-0.4,0.9-0.8,1.8-1.1,2.8h0c-0.4-1-0.8-1.9-1.2-2.8
			c-0.4-0.9-0.8-1.8-1.2-2.7l-4.4-9.1c-0.1-0.2-0.2-0.3-0.3-0.4c-0.1-0.1-0.2-0.2-0.4-0.2c-0.2-0.1-0.4-0.1-0.7-0.1
			c-0.3,0-0.7,0-1.2,0c-0.5,0-1,0-1.3,0c-0.3,0-0.5,0.1-0.7,0.2c-0.1,0.1-0.2,0.3-0.1,0.5c0,0.2,0.1,0.5,0.3,0.9l8.9,17.8v11.6
			c0,0.1,0,0.2,0.1,0.3c0.1,0.1,0.2,0.2,0.4,0.2c0.2,0.1,0.4,0.1,0.7,0.1c0.3,0,0.6,0.1,1,0.1c0.4,0,0.7,0,1-0.1
			c0.3,0,0.5-0.1,0.7-0.1c0.2-0.1,0.3-0.1,0.3-0.2c0.1-0.1,0.1-0.2,0.1-0.3v-11.6l8.9-17.8c0.2-0.4,0.3-0.6,0.3-0.9
			c0-0.2,0-0.4-0.1-0.5C739.3,655.6,739,655.6,738.7,655.5z M761.3,666.6c-0.9-1-2-1.8-3.3-2.3c-1.3-0.5-2.9-0.8-4.7-0.8
			c-1.9,0-3.5,0.3-4.9,0.9c-1.4,0.6-2.6,1.4-3.5,2.5c-0.9,1.1-1.6,2.4-2.1,3.9c-0.5,1.5-0.7,3.1-0.7,4.9c0,1.9,0.2,3.5,0.7,5
			c0.4,1.5,1.1,2.7,2,3.7c0.9,1,2,1.8,3.3,2.3c1.3,0.5,2.9,0.8,4.7,0.8c1.8,0,3.5-0.3,4.9-0.9c1.4-0.6,2.6-1.5,3.5-2.5
			c0.9-1.1,1.6-2.4,2.1-3.9c0.5-1.5,0.7-3.1,0.7-4.9c0-1.8-0.2-3.5-0.7-4.9C762.9,668.9,762.2,667.7,761.3,666.6z M759.5,679.1
			c-0.3,1.1-0.7,2-1.2,2.7c-0.6,0.8-1.3,1.4-2.1,1.8c-0.9,0.4-1.9,0.6-3.1,0.6c-1.3,0-2.4-0.2-3.2-0.7c-0.9-0.5-1.6-1.1-2.1-1.9
			c-0.5-0.8-0.9-1.7-1.1-2.8c-0.2-1.1-0.3-2.2-0.3-3.4c0-1.2,0.1-2.4,0.4-3.5c0.3-1.1,0.7-2,1.2-2.7c0.6-0.8,1.3-1.4,2.1-1.8
			c0.9-0.4,1.9-0.6,3.1-0.6c1.3,0,2.4,0.2,3.2,0.7c0.9,0.5,1.6,1.1,2.1,1.9c0.5,0.8,0.9,1.7,1.1,2.8c0.2,1.1,0.3,2.2,0.3,3.4
			C759.9,676.8,759.7,678,759.5,679.1z M791.6,664c-0.1-0.1-0.3-0.1-0.6-0.1c-0.3,0-0.6,0-1,0c-0.4,0-0.7,0-1,0
			c-0.3,0-0.5,0.1-0.6,0.1c-0.2,0.1-0.3,0.2-0.3,0.2c-0.1,0.1-0.1,0.2-0.1,0.3v15.3c-1.1,1.4-2.2,2.4-3.2,3.1c-1,0.7-2,1.1-3,1.1
			c-0.8,0-1.5-0.1-2-0.5c-0.6-0.3-1.1-0.7-1.4-1.3c-0.4-0.5-0.7-1.2-0.9-2c-0.2-0.8-0.3-1.8-0.3-3.1v-12.8c0-0.1,0-0.2-0.1-0.3
			c-0.1-0.1-0.2-0.2-0.3-0.2c-0.2-0.1-0.4-0.1-0.6-0.1c-0.3,0-0.6,0-1,0c-0.4,0-0.7,0-1,0c-0.3,0-0.5,0.1-0.6,0.1
			c-0.2,0.1-0.3,0.2-0.3,0.2c-0.1,0.1-0.1,0.2-0.1,0.3v13.3c0,1.6,0.1,2.9,0.4,4.1c0.3,1.1,0.7,2.1,1.3,2.9c0.6,0.8,1.4,1.5,2.4,2
			c1,0.5,2.2,0.7,3.7,0.7c1.2,0,2.5-0.3,3.7-0.9c1.2-0.6,2.4-1.6,3.7-3v2.9c0,0.1,0,0.2,0.1,0.3c0,0.1,0.1,0.2,0.3,0.2
			c0.1,0.1,0.3,0.1,0.6,0.1c0.2,0,0.5,0.1,0.9,0.1c0.3,0,0.6,0,0.9-0.1c0.2,0,0.4-0.1,0.6-0.1c0.1-0.1,0.2-0.1,0.3-0.2
			c0.1-0.1,0.1-0.2,0.1-0.3v-21.9c0-0.1,0-0.2-0.1-0.3C791.8,664.2,791.7,664.1,791.6,664z M815.5,664.6c0-0.1-0.1-0.2-0.1-0.3
			c0-0.1-0.1-0.2-0.2-0.2c-0.1-0.1-0.3-0.2-0.5-0.2c-0.2-0.1-0.5-0.2-0.8-0.2c-0.3-0.1-0.6-0.1-0.8-0.1c-0.3,0-0.5,0-0.7,0
			c-0.5,0-0.9,0.1-1.4,0.2c-0.5,0.1-0.9,0.3-1.4,0.7c-0.5,0.3-1,0.8-1.5,1.3c-0.5,0.6-1.1,1.3-1.7,2.1v-3.2c0-0.1,0-0.2-0.1-0.3
			c-0.1-0.1-0.1-0.2-0.3-0.2c-0.1-0.1-0.3-0.1-0.5-0.1c-0.2,0-0.5,0-0.9,0c-0.4,0-0.7,0-0.9,0c-0.2,0-0.4,0.1-0.6,0.1
			c-0.1,0.1-0.2,0.2-0.3,0.2c0,0.1-0.1,0.2-0.1,0.3v21.9c0,0.1,0,0.2,0.1,0.3c0.1,0.1,0.2,0.2,0.3,0.2c0.2,0.1,0.4,0.1,0.6,0.1
			c0.3,0,0.6,0.1,1,0.1c0.4,0,0.7,0,1-0.1c0.3,0,0.5-0.1,0.6-0.1c0.1-0.1,0.3-0.1,0.3-0.2c0.1-0.1,0.1-0.2,0.1-0.3v-14.4
			c0.6-0.9,1.1-1.6,1.6-2.3c0.5-0.6,0.9-1.1,1.4-1.5c0.4-0.4,0.8-0.6,1.2-0.8c0.4-0.2,0.8-0.2,1.2-0.2c0.3,0,0.7,0,0.9,0.1
			c0.3,0.1,0.6,0.1,0.8,0.2c0.2,0.1,0.4,0.1,0.6,0.2c0.2,0.1,0.3,0.1,0.5,0.1c0.1,0,0.2,0,0.3-0.1c0.1-0.1,0.1-0.2,0.2-0.3
			c0-0.1,0.1-0.3,0.1-0.6c0-0.2,0-0.5,0-0.9c0-0.4,0-0.7,0-0.9C815.5,664.9,815.5,664.8,815.5,664.6z M876.2,655.5
			c-0.3,0-0.7-0.1-1.2-0.1c-0.5,0-0.8,0-1.1,0c-0.3,0-0.5,0.1-0.7,0.1c-0.2,0.1-0.3,0.2-0.3,0.3c0,0.1-0.1,0.3-0.1,0.4l-6.9,26.4h0
			l-7.2-26.3c0-0.2-0.1-0.3-0.2-0.5c-0.1-0.1-0.2-0.2-0.4-0.3c-0.2-0.1-0.4-0.1-0.6-0.1c-0.3,0-0.6,0-1.1,0c-0.5,0-0.9,0-1.2,0
			c-0.3,0-0.5,0.1-0.7,0.1c-0.2,0.1-0.3,0.2-0.4,0.3c-0.1,0.1-0.1,0.3-0.2,0.5l-6.7,26.3h0l-7.1-26.4c0-0.2-0.1-0.3-0.1-0.4
			c-0.1-0.1-0.2-0.2-0.3-0.3c-0.2-0.1-0.4-0.1-0.7-0.1c-0.3,0-0.7,0-1.2,0c-0.5,0-0.9,0-1.2,0c-0.3,0-0.5,0.1-0.7,0.2
			c-0.1,0.1-0.2,0.3-0.2,0.5c0,0.2,0.1,0.5,0.2,0.9l8.3,29.1c0,0.2,0.1,0.4,0.3,0.6c0.1,0.1,0.3,0.2,0.5,0.3
			c0.2,0.1,0.5,0.1,0.9,0.2c0.4,0,0.8,0.1,1.3,0.1c0.5,0,0.9,0,1.3-0.1c0.3,0,0.6-0.1,0.8-0.2c0.2-0.1,0.4-0.2,0.5-0.3
			c0.1-0.1,0.2-0.3,0.2-0.6l6.1-23.8h0l6.6,23.8c0.1,0.2,0.2,0.4,0.3,0.6c0.1,0.1,0.3,0.2,0.5,0.3c0.2,0.1,0.5,0.1,0.9,0.2
			c0.3,0,0.8,0.1,1.3,0.1c0.5,0,0.9,0,1.2-0.1c0.3,0,0.6-0.1,0.8-0.2c0.2-0.1,0.4-0.2,0.5-0.3c0.1-0.1,0.2-0.3,0.3-0.6l8.3-29.1
			c0.1-0.4,0.1-0.7,0.1-0.9c0-0.2-0.1-0.4-0.2-0.5C876.7,655.6,876.5,655.6,876.2,655.5z M900.2,666.6c-0.8-0.9-1.8-1.7-3-2.2
			c-1.2-0.6-2.7-0.8-4.4-0.8c-1.6,0-3.1,0.3-4.4,0.8c-1.3,0.6-2.4,1.4-3.3,2.4c-0.9,1-1.6,2.3-2.1,3.8c-0.5,1.5-0.7,3.2-0.7,5.1
			c0,2,0.2,3.7,0.7,5.2c0.5,1.5,1.2,2.7,2.1,3.7c0.9,1,2.1,1.7,3.4,2.2c1.4,0.5,2.9,0.8,4.7,0.8c1,0,2-0.1,2.9-0.2
			c0.9-0.2,1.7-0.3,2.4-0.5c0.7-0.2,1.3-0.4,1.7-0.6c0.4-0.2,0.7-0.4,0.8-0.4c0.1-0.1,0.2-0.2,0.2-0.3c0.1-0.1,0.1-0.2,0.1-0.3
			c0-0.1,0-0.3,0.1-0.4c0-0.2,0-0.3,0-0.5c0-0.3,0-0.5,0-0.7c0-0.2-0.1-0.4-0.1-0.5c0-0.1-0.1-0.2-0.2-0.3c-0.1-0.1-0.2-0.1-0.3-0.1
			c-0.2,0-0.5,0.1-0.9,0.3c-0.4,0.2-0.9,0.4-1.5,0.6c-0.6,0.2-1.3,0.4-2.1,0.6c-0.8,0.2-1.7,0.3-2.8,0.3c-1.3,0-2.4-0.2-3.4-0.6
			c-0.9-0.4-1.7-0.9-2.2-1.6c-0.6-0.7-1-1.5-1.2-2.5c-0.2-1-0.4-2.1-0.4-3.3h14.4c0.4,0,0.8-0.1,1.1-0.4c0.3-0.3,0.5-0.7,0.5-1.4
			v-0.7c0-1.4-0.2-2.8-0.5-4C901.5,668.6,901,667.5,900.2,666.6z M886.5,673.4c0-0.9,0.2-1.7,0.5-2.6c0.3-0.8,0.7-1.5,1.2-2.2
			c0.5-0.6,1.1-1.1,1.9-1.5c0.8-0.4,1.6-0.6,2.6-0.6c1.9,0,3.4,0.6,4.4,1.8c1,1.2,1.5,2.9,1.4,5H886.5z M926.4,665.6
			c-0.7-0.7-1.6-1.2-2.7-1.6c-1.1-0.4-2.4-0.5-4-0.5c-0.8,0-1.7,0.1-2.5,0.2c-0.8,0.2-1.6,0.3-2.3,0.6c-0.7,0.2-1.3,0.5-1.9,0.8
			c-0.5,0.3-0.9,0.5-1.1,0.7c-0.2,0.2-0.4,0.4-0.4,0.7c-0.1,0.2-0.1,0.6-0.1,1c0,0.2,0,0.5,0,0.7c0,0.2,0.1,0.4,0.2,0.5
			c0.1,0.1,0.2,0.2,0.3,0.3c0.1,0.1,0.2,0.1,0.3,0.1c0.2,0,0.5-0.1,0.9-0.4c0.4-0.2,0.9-0.5,1.5-0.8c0.6-0.3,1.3-0.5,2.1-0.8
			c0.8-0.2,1.7-0.4,2.7-0.4c0.9,0,1.7,0.1,2.3,0.3c0.6,0.2,1.1,0.5,1.5,1c0.4,0.4,0.7,1,0.9,1.6c0.2,0.6,0.3,1.4,0.3,2.2v1.7h-3
			c-1.7,0-3.2,0.1-4.6,0.4c-1.4,0.3-2.5,0.8-3.5,1.4c-0.9,0.6-1.7,1.4-2.2,2.3c-0.5,0.9-0.8,2-0.8,3.2c0,1.1,0.2,2,0.5,2.8
			c0.4,0.8,0.9,1.5,1.5,2.1c0.7,0.6,1.5,1,2.4,1.3c0.9,0.3,2,0.5,3.1,0.5c1.3,0,2.6-0.3,3.7-0.9c1.2-0.6,2.2-1.4,3.2-2.4v2.2
			c0,0.2,0.1,0.3,0.2,0.4c0.1,0.1,0.3,0.2,0.5,0.2c0.3,0,0.6,0.1,1,0.1c0.4,0,0.8,0,1-0.1c0.2-0.1,0.4-0.1,0.5-0.2
			c0.1-0.1,0.2-0.2,0.2-0.4v-14.8c0-1.4-0.2-2.6-0.5-3.6C927.6,667.2,927.1,666.3,926.4,665.6z M924.4,681.2c-1,1.1-1.9,1.9-2.8,2.5
			c-0.9,0.5-1.9,0.8-2.9,0.8c-1.3,0-2.3-0.3-3-1c-0.7-0.7-1.1-1.6-1.1-2.7c0-0.7,0.1-1.3,0.4-1.8c0.3-0.5,0.6-1,1.2-1.3
			c0.5-0.4,1.2-0.6,2-0.8c0.8-0.2,1.8-0.3,2.9-0.3h3.4V681.2z M942.6,653.4c-0.1-0.1-0.3-0.1-0.6-0.1c-0.3,0-0.6-0.1-1-0.1
			c-0.4,0-0.7,0-1,0.1c-0.3,0-0.5,0.1-0.6,0.1c-0.2,0.1-0.3,0.1-0.3,0.2c-0.1,0.1-0.1,0.2-0.1,0.3v32.5c0,0.1,0,0.2,0.1,0.3
			c0.1,0.1,0.2,0.2,0.3,0.2c0.2,0.1,0.4,0.1,0.6,0.1c0.3,0,0.6,0.1,1,0.1c0.4,0,0.7,0,1-0.1c0.3,0,0.5-0.1,0.6-0.1
			c0.1-0.1,0.3-0.1,0.3-0.2c0.1-0.1,0.1-0.2,0.1-0.3V654c0-0.1,0-0.2-0.1-0.3C942.9,653.5,942.8,653.5,942.6,653.4z M964.3,667.3
			c0.2,0,0.4-0.1,0.6-0.4c0.1-0.3,0.2-0.7,0.2-1.3c0-0.3,0-0.6,0-0.8c0-0.2-0.1-0.4-0.2-0.5c-0.1-0.1-0.2-0.2-0.3-0.3
			c-0.1-0.1-0.2-0.1-0.3-0.1h-5.6v-5.2c0-0.1,0-0.2-0.1-0.3c-0.1-0.1-0.2-0.2-0.3-0.3c-0.1-0.1-0.3-0.1-0.6-0.2c-0.3,0-0.6,0-1,0
			c-0.4,0-0.7,0-1,0c-0.3,0-0.5,0.1-0.6,0.2c-0.2,0.1-0.3,0.2-0.3,0.3c-0.1,0.1-0.1,0.2-0.1,0.3v5.2h-3c-0.1,0-0.2,0-0.4,0.1
			c-0.1,0.1-0.2,0.2-0.3,0.3c-0.1,0.1-0.1,0.3-0.2,0.5c0,0.2-0.1,0.5-0.1,0.8c0,0.6,0.1,1,0.2,1.3c0.1,0.3,0.3,0.4,0.6,0.4h3.1v12.8
			c0,1.3,0.1,2.4,0.4,3.3c0.2,0.9,0.6,1.7,1.1,2.3c0.5,0.6,1.2,1.1,2,1.4c0.8,0.3,1.8,0.5,2.9,0.5c0.4,0,0.7,0,1.1-0.1
			c0.4-0.1,0.7-0.1,1.1-0.2c0.3-0.1,0.6-0.2,0.9-0.3c0.3-0.1,0.5-0.2,0.6-0.4c0.1-0.1,0.2-0.3,0.3-0.6c0.1-0.3,0.1-0.6,0.1-1.1
			c0-0.3,0-0.5,0-0.7c0-0.2-0.1-0.3-0.1-0.5c0-0.1-0.1-0.2-0.2-0.2c-0.1,0-0.2-0.1-0.2-0.1c-0.1,0-0.3,0-0.4,0.1
			c-0.2,0.1-0.4,0.2-0.6,0.2c-0.2,0.1-0.5,0.2-0.8,0.2c-0.3,0.1-0.6,0.1-1,0.1c-1.2,0-2-0.4-2.4-1.2c-0.4-0.8-0.7-1.9-0.7-3.4v-12.2
			H964.3z M990.9,666.2c-0.6-0.8-1.4-1.5-2.4-2c-1-0.5-2.2-0.7-3.7-0.7c-1.2,0-2.4,0.3-3.5,0.9c-1.2,0.6-2.3,1.5-3.5,2.7V654
			c0-0.1,0-0.2-0.1-0.3c-0.1-0.1-0.2-0.2-0.3-0.2c-0.1-0.1-0.3-0.1-0.6-0.1c-0.3,0-0.6-0.1-1-0.1c-0.4,0-0.7,0-1,0.1
			c-0.3,0-0.5,0.1-0.6,0.1c-0.2,0.1-0.3,0.1-0.3,0.2c-0.1,0.1-0.1,0.2-0.1,0.3v32.5c0,0.1,0,0.2,0.1,0.3c0.1,0.1,0.2,0.2,0.3,0.2
			c0.2,0.1,0.4,0.1,0.6,0.1c0.3,0,0.6,0.1,1,0.1c0.4,0,0.7,0,1-0.1c0.3,0,0.5-0.1,0.6-0.1c0.1-0.1,0.3-0.1,0.3-0.2
			c0.1-0.1,0.1-0.2,0.1-0.3v-15.3c1.1-1.4,2.2-2.4,3.2-3.1c1-0.7,2-1.1,3-1.1c0.8,0,1.5,0.1,2.1,0.4c0.6,0.3,1.1,0.7,1.4,1.3
			c0.4,0.6,0.7,1.2,0.9,2c0.2,0.8,0.3,1.8,0.3,3v12.8c0,0.1,0,0.2,0.1,0.3c0.1,0.1,0.2,0.2,0.3,0.2c0.1,0.1,0.3,0.1,0.6,0.1
			c0.3,0,0.6,0.1,1,0.1c0.4,0,0.7,0,1-0.1c0.3,0,0.5-0.1,0.6-0.1c0.1-0.1,0.3-0.1,0.3-0.2c0.1-0.1,0.1-0.2,0.1-0.3v-13.3
			c0-1.6-0.1-2.9-0.4-4S991.5,667.1,990.9,666.2z M1027.4,673.5c-0.1-0.1-0.2-0.2-0.3-0.3c-0.1,0-0.2-0.1-0.4-0.1h-10.2
			c-0.3,0-0.5,0.1-0.7,0.4c-0.1,0.2-0.2,0.7-0.2,1.3c0,0.6,0.1,1,0.2,1.3c0.1,0.2,0.4,0.4,0.7,0.4h10.2c0.3,0,0.5-0.1,0.6-0.4
			c0.1-0.2,0.2-0.7,0.2-1.3c0-0.3,0-0.6-0.1-0.8C1027.5,673.8,1027.5,673.7,1027.4,673.5z M1067.5,683.9c-0.1-0.1-0.2-0.2-0.3-0.3
			c-0.1-0.1-0.2-0.1-0.4-0.1h-11.3v-27.2c0-0.1,0-0.2-0.1-0.3c-0.1-0.1-0.2-0.2-0.3-0.2c-0.2-0.1-0.4-0.1-0.6-0.1
			c-0.3,0-0.6-0.1-1-0.1c-0.4,0-0.7,0-1,0.1c-0.3,0-0.5,0.1-0.7,0.1c-0.2,0.1-0.3,0.1-0.3,0.2c-0.1,0.1-0.1,0.2-0.1,0.3v29.2
			c0,0.6,0.2,1.1,0.5,1.3c0.3,0.3,0.7,0.4,1.1,0.4h13.9c0.1,0,0.3,0,0.4-0.1c0.1-0.1,0.2-0.2,0.3-0.3c0.1-0.2,0.1-0.3,0.2-0.6
			c0-0.2,0-0.5,0-0.8c0-0.3,0-0.6,0-0.8C1067.6,684.2,1067.5,684.1,1067.5,683.9z M1077.2,654.8c-1,0-1.6,0.2-2,0.5
			c-0.4,0.3-0.5,1-0.5,1.9c0,0.9,0.2,1.6,0.5,1.9c0.3,0.3,1,0.5,1.9,0.5c1,0,1.6-0.2,2-0.5c0.4-0.3,0.5-1,0.5-1.9
			c0-0.9-0.2-1.6-0.5-1.9C1078.7,655,1078.1,654.8,1077.2,654.8z M1078.7,664c-0.1-0.1-0.3-0.1-0.6-0.1c-0.3,0-0.6-0.1-1-0.1
			c-0.4,0-0.7,0-1,0.1c-0.3,0-0.5,0.1-0.6,0.1c-0.2,0.1-0.3,0.1-0.3,0.2c-0.1,0.1-0.1,0.2-0.1,0.3v21.9c0,0.1,0,0.2,0.1,0.3
			c0.1,0.1,0.2,0.2,0.3,0.2c0.2,0.1,0.4,0.1,0.6,0.1c0.3,0,0.6,0.1,1,0.1c0.4,0,0.7,0,1-0.1c0.3,0,0.5-0.1,0.6-0.1
			c0.1-0.1,0.3-0.1,0.3-0.2c0.1-0.1,0.1-0.2,0.1-0.3v-21.9c0-0.1,0-0.2-0.1-0.3C1079,664.2,1078.9,664.1,1078.7,664z M1101.7,654.2
			c-0.1-0.2-0.1-0.3-0.2-0.4c-0.1-0.1-0.3-0.2-0.6-0.3c-0.3-0.1-0.7-0.2-1.2-0.3c-0.5-0.1-1.1-0.2-1.7-0.2c-1.2,0-2.2,0.2-3.1,0.5
			c-0.9,0.3-1.6,0.8-2.2,1.5c-0.6,0.7-1,1.6-1.3,2.7c-0.3,1.1-0.4,2.4-0.4,3.9v2.3h-3.1c-0.1,0-0.2,0-0.3,0.1
			c-0.1,0.1-0.2,0.2-0.2,0.3c-0.1,0.1-0.1,0.3-0.1,0.5c0,0.2,0,0.5,0,0.8c0,0.6,0.1,1,0.2,1.3c0.1,0.3,0.3,0.4,0.6,0.4h3.1v19.2
			c0,0.1,0,0.2,0.1,0.3c0.1,0.1,0.2,0.2,0.3,0.2c0.2,0.1,0.4,0.1,0.6,0.1c0.3,0,0.6,0.1,1,0.1s0.7,0,1-0.1c0.3,0,0.5-0.1,0.6-0.1
			c0.2-0.1,0.3-0.1,0.3-0.2c0.1-0.1,0.1-0.2,0.1-0.3v-19.2h4.9c0.2,0,0.4-0.1,0.6-0.4c0.1-0.3,0.2-0.7,0.2-1.3c0-0.3,0-0.6-0.1-0.8
			c0-0.2-0.1-0.4-0.2-0.5c-0.1-0.1-0.2-0.2-0.2-0.3c-0.1-0.1-0.2-0.1-0.3-0.1h-4.9v-2.4c0-0.9,0.1-1.7,0.2-2.4
			c0.1-0.7,0.3-1.2,0.6-1.6s0.6-0.7,1-0.9c0.4-0.2,0.9-0.3,1.5-0.3c0.4,0,0.8,0,1.2,0.1c0.3,0.1,0.6,0.2,0.9,0.2
			c0.2,0.1,0.5,0.2,0.6,0.2c0.2,0.1,0.3,0.1,0.4,0.1c0.1,0,0.2,0,0.2-0.1c0.1,0,0.1-0.1,0.2-0.2c0-0.1,0.1-0.3,0.1-0.5
			c0-0.2,0-0.4,0-0.7c0-0.3,0-0.6,0-0.8C1101.8,654.6,1101.8,654.4,1101.7,654.2z M1123.6,666.6c-0.8-0.9-1.8-1.7-3-2.2
			c-1.2-0.6-2.7-0.8-4.4-0.8c-1.6,0-3.1,0.3-4.4,0.8c-1.3,0.6-2.4,1.4-3.3,2.4c-0.9,1-1.6,2.3-2.1,3.8c-0.5,1.5-0.7,3.2-0.7,5.1
			c0,2,0.2,3.7,0.7,5.2c0.5,1.5,1.2,2.7,2.1,3.7c0.9,1,2.1,1.7,3.4,2.2c1.4,0.5,2.9,0.8,4.7,0.8c1,0,2-0.1,2.9-0.2
			c0.9-0.2,1.7-0.3,2.4-0.5c0.7-0.2,1.3-0.4,1.7-0.6c0.4-0.2,0.7-0.4,0.8-0.4c0.1-0.1,0.2-0.2,0.2-0.3c0.1-0.1,0.1-0.2,0.1-0.3
			c0-0.1,0-0.3,0.1-0.4c0-0.2,0-0.3,0-0.5c0-0.3,0-0.5,0-0.7c0-0.2-0.1-0.4-0.1-0.5c0-0.1-0.1-0.2-0.2-0.3c-0.1-0.1-0.2-0.1-0.3-0.1
			c-0.2,0-0.5,0.1-0.9,0.3c-0.4,0.2-0.9,0.4-1.5,0.6c-0.6,0.2-1.3,0.4-2.1,0.6c-0.8,0.2-1.7,0.3-2.8,0.3c-1.3,0-2.4-0.2-3.4-0.6
			c-0.9-0.4-1.7-0.9-2.2-1.6c-0.6-0.7-1-1.5-1.2-2.5c-0.2-1-0.4-2.1-0.4-3.3h14.4c0.4,0,0.8-0.1,1.1-0.4c0.3-0.3,0.5-0.7,0.5-1.4
			v-0.7c0-1.4-0.2-2.8-0.5-4C1124.9,668.6,1124.3,667.5,1123.6,666.6z M1109.8,673.4c0-0.9,0.2-1.7,0.5-2.6c0.3-0.8,0.7-1.5,1.2-2.2
			c0.5-0.6,1.1-1.1,1.9-1.5c0.8-0.4,1.6-0.6,2.6-0.6c1.9,0,3.4,0.6,4.4,1.8c1,1.2,1.5,2.9,1.4,5H1109.8z M1184,656.1
			c-0.2-0.2-0.3-0.3-0.6-0.3c-0.2-0.1-0.5-0.1-0.7-0.1h-2.7c-0.4,0-0.8,0-1.1,0.1c-0.3,0.1-0.6,0.2-0.9,0.4
			c-0.3,0.2-0.5,0.5-0.7,0.8c-0.2,0.3-0.4,0.8-0.6,1.2l-9.4,22.7h-0.1l-9-22.8c-0.1-0.4-0.3-0.8-0.5-1.1c-0.2-0.3-0.4-0.6-0.7-0.8
			c-0.3-0.2-0.6-0.4-1-0.5c-0.4-0.1-0.9-0.1-1.4-0.1h-2.6c-0.4,0-0.8,0.1-1.2,0.4c-0.4,0.3-0.5,0.8-0.5,1.5v29c0,0.1,0,0.2,0.1,0.3
			c0.1,0.1,0.2,0.2,0.3,0.2c0.2,0.1,0.4,0.1,0.6,0.1c0.3,0,0.6,0.1,1,0.1c0.4,0,0.8,0,1-0.1s0.5-0.1,0.7-0.1
			c0.2-0.1,0.3-0.1,0.4-0.2c0.1-0.1,0.1-0.2,0.1-0.3V659h0l10.6,27.6c0,0.1,0.1,0.2,0.2,0.3c0.1,0.1,0.2,0.2,0.4,0.2
			c0.2,0.1,0.4,0.1,0.6,0.1c0.2,0,0.5,0.1,0.9,0.1c0.3,0,0.6,0,0.8,0c0.2,0,0.4-0.1,0.6-0.1c0.2-0.1,0.3-0.1,0.4-0.2
			c0.1-0.1,0.2-0.2,0.2-0.3l11.1-27.6h0v27.4c0,0.1,0,0.2,0.1,0.3c0.1,0.1,0.2,0.2,0.3,0.2c0.2,0.1,0.4,0.1,0.7,0.1s0.6,0.1,1,0.1
			c0.4,0,0.8,0,1-0.1c0.3,0,0.5-0.1,0.6-0.1c0.2-0.1,0.3-0.1,0.4-0.2c0.1-0.1,0.1-0.2,0.1-0.3v-29c0-0.3,0-0.6-0.1-0.9
			C1184.2,656.4,1184.1,656.2,1184,656.1z M1210.2,665.6c-0.7-0.7-1.6-1.2-2.7-1.6c-1.1-0.4-2.4-0.5-4-0.5c-0.8,0-1.7,0.1-2.5,0.2
			c-0.8,0.2-1.6,0.3-2.3,0.6c-0.7,0.2-1.3,0.5-1.9,0.8c-0.5,0.3-0.9,0.5-1.1,0.7c-0.2,0.2-0.4,0.4-0.4,0.7c-0.1,0.2-0.1,0.6-0.1,1
			c0,0.2,0,0.5,0,0.7c0,0.2,0.1,0.4,0.2,0.5c0.1,0.1,0.2,0.2,0.3,0.3c0.1,0.1,0.2,0.1,0.3,0.1c0.2,0,0.5-0.1,0.9-0.4
			c0.4-0.2,0.9-0.5,1.5-0.8c0.6-0.3,1.3-0.5,2.1-0.8c0.8-0.2,1.7-0.4,2.7-0.4c0.9,0,1.7,0.1,2.3,0.3c0.6,0.2,1.1,0.5,1.5,1
			c0.4,0.4,0.7,1,0.9,1.6c0.2,0.6,0.3,1.4,0.3,2.2v1.7h-3c-1.7,0-3.2,0.1-4.6,0.4c-1.4,0.3-2.5,0.8-3.5,1.4
			c-0.9,0.6-1.7,1.4-2.2,2.3c-0.5,0.9-0.8,2-0.8,3.2c0,1.1,0.2,2,0.5,2.8c0.4,0.8,0.9,1.5,1.5,2.1c0.7,0.6,1.5,1,2.4,1.3
			c0.9,0.3,2,0.5,3.1,0.5c1.3,0,2.6-0.3,3.7-0.9c1.2-0.6,2.2-1.4,3.2-2.4v2.2c0,0.2,0.1,0.3,0.2,0.4c0.1,0.1,0.3,0.2,0.5,0.2
			c0.3,0,0.6,0.1,1,0.1c0.4,0,0.8,0,1-0.1c0.2-0.1,0.4-0.1,0.5-0.2c0.1-0.1,0.2-0.2,0.2-0.4v-14.8c0-1.4-0.2-2.6-0.5-3.6
			C1211.4,667.2,1210.9,666.3,1210.2,665.6z M1208.2,681.2c-1,1.1-1.9,1.9-2.8,2.5c-0.9,0.5-1.9,0.8-2.9,0.8c-1.3,0-2.3-0.3-3-1
			c-0.7-0.7-1.1-1.6-1.1-2.7c0-0.7,0.1-1.3,0.4-1.8c0.3-0.5,0.6-1,1.2-1.3c0.5-0.4,1.2-0.6,2-0.8c0.8-0.2,1.8-0.3,2.9-0.3h3.4V681.2
			z M1247.9,667.3c0.2,0,0.4-0.1,0.6-0.4c0.1-0.3,0.2-0.7,0.2-1.3c0-0.3,0-0.6,0-0.8c0-0.2-0.1-0.4-0.2-0.5
			c-0.1-0.1-0.2-0.2-0.3-0.3c-0.1-0.1-0.2-0.1-0.3-0.1h-5.6v-6.3c0-0.1,0-0.2-0.1-0.3c-0.1-0.1-0.2-0.2-0.3-0.2
			c-0.2-0.1-0.4-0.1-0.6-0.1c-0.3,0-0.6-0.1-1-0.1c-0.4,0-0.7,0-1,0.1c-0.3,0-0.5,0.1-0.6,0.1c-0.2,0.1-0.3,0.1-0.3,0.2
			c-0.1,0.1-0.1,0.2-0.1,0.3v6.3h-10.9v-5.2c0-0.1,0-0.2-0.1-0.3c-0.1-0.1-0.2-0.2-0.3-0.3c-0.1-0.1-0.3-0.1-0.6-0.2
			c-0.3,0-0.6,0-1,0c-0.4,0-0.7,0-1,0c-0.3,0-0.5,0.1-0.6,0.2c-0.2,0.1-0.3,0.2-0.3,0.3c-0.1,0.1-0.1,0.2-0.1,0.3v5.2h-3
			c-0.1,0-0.2,0-0.4,0.1c-0.1,0.1-0.2,0.2-0.3,0.3c-0.1,0.1-0.1,0.3-0.2,0.5c0,0.2-0.1,0.5-0.1,0.8c0,0.6,0.1,1,0.2,1.3
			c0.1,0.3,0.3,0.4,0.6,0.4h3.1v12.8c0,1.3,0.1,2.4,0.4,3.3c0.2,0.9,0.6,1.7,1.1,2.3c0.5,0.6,1.2,1.1,2,1.4c0.8,0.3,1.8,0.5,2.9,0.5
			c0.4,0,0.7,0,1.1-0.1c0.4-0.1,0.7-0.1,1-0.2c0.3-0.1,0.6-0.2,0.9-0.3c0.2-0.1,0.4-0.2,0.5-0.3c0.1-0.1,0.2-0.2,0.3-0.3
			c0.1-0.1,0.1-0.2,0.1-0.4c0-0.1,0-0.3,0.1-0.5c0-0.2,0-0.4,0-0.7c0-0.3,0-0.5,0-0.7c0-0.2-0.1-0.3-0.1-0.5c0-0.1-0.1-0.2-0.2-0.2
			c-0.1,0-0.2-0.1-0.2-0.1c-0.1,0-0.3,0-0.4,0.1c-0.2,0.1-0.4,0.2-0.6,0.2c-0.2,0.1-0.5,0.2-0.8,0.2c-0.3,0.1-0.6,0.1-1,0.1
			c-1.2,0-2-0.4-2.4-1.2c-0.4-0.8-0.7-1.9-0.7-3.4v-12.2h10.9v12.8c0,1.3,0.1,2.4,0.4,3.3c0.2,0.9,0.6,1.7,1.1,2.3
			c0.5,0.6,1.2,1.1,2,1.4c0.8,0.3,1.8,0.5,2.9,0.5c0.4,0,0.7,0,1.1-0.1c0.4-0.1,0.7-0.1,1.1-0.2c0.3-0.1,0.6-0.2,0.9-0.3
			c0.2-0.1,0.4-0.2,0.6-0.4c0.1-0.1,0.2-0.3,0.3-0.6c0.1-0.3,0.1-0.6,0.1-1.1c0-0.3,0-0.5,0-0.7c0-0.2-0.1-0.3-0.1-0.5
			c0-0.1-0.1-0.2-0.2-0.2c-0.1,0-0.1-0.1-0.2-0.1c-0.1,0-0.3,0-0.4,0.1c-0.2,0.1-0.4,0.2-0.6,0.2c-0.2,0.1-0.5,0.2-0.8,0.2
			c-0.3,0.1-0.6,0.1-1,0.1c-1.2,0-1.9-0.4-2.4-1.2c-0.4-0.8-0.7-1.9-0.7-3.4v-12.2H1247.9z M1273.2,666.6c-0.8-0.9-1.8-1.7-3-2.2
			c-1.2-0.6-2.7-0.8-4.4-0.8c-1.6,0-3.1,0.3-4.4,0.8c-1.3,0.6-2.4,1.4-3.3,2.4c-0.9,1-1.6,2.3-2.1,3.8c-0.5,1.5-0.7,3.2-0.7,5.1
			c0,2,0.2,3.7,0.7,5.2c0.5,1.5,1.2,2.7,2.1,3.7c0.9,1,2.1,1.7,3.4,2.2c1.4,0.5,2.9,0.8,4.7,0.8c1,0,2-0.1,2.9-0.2
			c0.9-0.2,1.7-0.3,2.4-0.5c0.7-0.2,1.3-0.4,1.7-0.6c0.4-0.2,0.7-0.4,0.8-0.4c0.1-0.1,0.2-0.2,0.2-0.3c0.1-0.1,0.1-0.2,0.1-0.3
			c0-0.1,0-0.3,0.1-0.4c0-0.2,0-0.3,0-0.5c0-0.3,0-0.5,0-0.7c0-0.2-0.1-0.4-0.1-0.5c0-0.1-0.1-0.2-0.2-0.3c-0.1-0.1-0.2-0.1-0.3-0.1
			c-0.2,0-0.5,0.1-0.9,0.3c-0.4,0.2-0.9,0.4-1.5,0.6c-0.6,0.2-1.3,0.4-2.1,0.6c-0.8,0.2-1.7,0.3-2.8,0.3c-1.3,0-2.4-0.2-3.4-0.6
			c-0.9-0.4-1.7-0.9-2.2-1.6c-0.6-0.7-1-1.5-1.2-2.5c-0.2-1-0.4-2.1-0.4-3.3h14.4c0.4,0,0.8-0.1,1.1-0.4c0.3-0.3,0.5-0.7,0.5-1.4
			v-0.7c0-1.4-0.2-2.8-0.5-4C1274.5,668.6,1274,667.5,1273.2,666.6z M1259.5,673.4c0-0.9,0.2-1.7,0.5-2.6c0.3-0.8,0.7-1.5,1.2-2.2
			c0.5-0.6,1.1-1.1,1.9-1.5c0.8-0.4,1.6-0.6,2.6-0.6c1.9,0,3.4,0.6,4.4,1.8c1,1.2,1.5,2.9,1.4,5H1259.5z M1297.6,664.6
			c0-0.1-0.1-0.2-0.1-0.3c0-0.1-0.1-0.2-0.2-0.2c-0.1-0.1-0.3-0.2-0.5-0.2c-0.2-0.1-0.5-0.2-0.8-0.2c-0.3-0.1-0.6-0.1-0.8-0.1
			c-0.3,0-0.5,0-0.7,0c-0.5,0-0.9,0.1-1.4,0.2c-0.5,0.1-0.9,0.3-1.4,0.7c-0.5,0.3-1,0.8-1.5,1.3c-0.5,0.6-1.1,1.3-1.7,2.1v-3.2
			c0-0.1,0-0.2-0.1-0.3c-0.1-0.1-0.2-0.2-0.3-0.2c-0.1-0.1-0.3-0.1-0.5-0.1c-0.2,0-0.5,0-0.9,0c-0.4,0-0.7,0-0.9,0
			c-0.2,0-0.4,0.1-0.6,0.1c-0.1,0.1-0.2,0.2-0.3,0.2c0,0.1-0.1,0.2-0.1,0.3v21.9c0,0.1,0,0.2,0.1,0.3c0.1,0.1,0.2,0.2,0.3,0.2
			c0.2,0.1,0.4,0.1,0.6,0.1c0.3,0,0.6,0.1,1,0.1c0.4,0,0.7,0,1-0.1c0.3,0,0.5-0.1,0.6-0.1c0.1-0.1,0.3-0.1,0.3-0.2
			c0.1-0.1,0.1-0.2,0.1-0.3v-14.4c0.6-0.9,1.1-1.6,1.6-2.3c0.5-0.6,0.9-1.1,1.4-1.5c0.4-0.4,0.8-0.6,1.2-0.8
			c0.4-0.2,0.8-0.2,1.2-0.2c0.3,0,0.7,0,0.9,0.1c0.3,0.1,0.6,0.1,0.8,0.2c0.2,0.1,0.4,0.1,0.6,0.2c0.2,0.1,0.3,0.1,0.5,0.1
			c0.1,0,0.2,0,0.3-0.1c0.1-0.1,0.1-0.2,0.2-0.3c0-0.1,0.1-0.3,0.1-0.6c0-0.2,0-0.5,0-0.9c0-0.4,0-0.7,0-0.9
			C1297.6,664.9,1297.6,664.8,1297.6,664.6z M1318,678.1c-0.3-0.7-0.7-1.3-1.3-1.8c-0.5-0.5-1.1-0.9-1.8-1.2c-0.7-0.3-1.4-0.6-2-0.9
			c-0.7-0.3-1.4-0.5-2-0.8c-0.7-0.3-1.3-0.6-1.8-0.9c-0.5-0.3-0.9-0.7-1.3-1.1c-0.3-0.4-0.5-1-0.5-1.6c0-0.5,0.1-0.9,0.3-1.3
			c0.2-0.4,0.4-0.7,0.8-1c0.3-0.3,0.8-0.5,1.3-0.7c0.5-0.2,1.1-0.2,1.8-0.2c0.8,0,1.4,0.1,2,0.3c0.6,0.2,1.1,0.4,1.5,0.6
			c0.4,0.2,0.8,0.4,1.1,0.6c0.3,0.2,0.5,0.3,0.6,0.3c0.1,0,0.2,0,0.3-0.1c0.1-0.1,0.2-0.1,0.2-0.3c0.1-0.1,0.1-0.3,0.1-0.5
			c0-0.2,0-0.4,0-0.7c0-0.3,0-0.5,0-0.7c0-0.2,0-0.3-0.1-0.5c0-0.1-0.1-0.2-0.1-0.3c-0.1-0.1-0.2-0.2-0.3-0.3
			c-0.2-0.1-0.4-0.3-0.8-0.4c-0.3-0.2-0.7-0.3-1.2-0.5c-0.5-0.1-1-0.3-1.6-0.4c-0.6-0.1-1.2-0.1-1.8-0.1c-1.3,0-2.5,0.2-3.5,0.5
			c-1,0.4-1.8,0.8-2.5,1.4c-0.7,0.6-1.2,1.3-1.5,2.1c-0.3,0.8-0.5,1.6-0.5,2.5c0,1,0.2,1.8,0.5,2.5c0.3,0.7,0.7,1.3,1.3,1.8
			c0.5,0.5,1.1,0.9,1.8,1.3c0.7,0.4,1.3,0.7,2,0.9c0.7,0.3,1.4,0.5,2,0.8c0.6,0.3,1.2,0.5,1.8,0.9c0.5,0.3,0.9,0.7,1.3,1.1
			c0.3,0.4,0.5,0.9,0.5,1.6c0,0.6-0.1,1.1-0.3,1.6c-0.2,0.4-0.5,0.8-0.9,1.1c-0.4,0.3-0.9,0.5-1.4,0.6c-0.6,0.2-1.2,0.2-1.9,0.2
			c-0.9,0-1.7-0.1-2.4-0.3c-0.7-0.2-1.3-0.5-1.8-0.7c-0.5-0.3-0.9-0.5-1.3-0.7c-0.3-0.2-0.6-0.3-0.8-0.3c-0.1,0-0.2,0-0.3,0.1
			c-0.1,0.1-0.2,0.1-0.2,0.3c0,0.1-0.1,0.3-0.1,0.5c0,0.2,0,0.5,0,0.8c0,0.5,0,0.9,0.1,1.2c0.1,0.3,0.2,0.5,0.4,0.7
			c0.2,0.2,0.5,0.3,0.9,0.5c0.4,0.2,0.9,0.4,1.4,0.6c0.6,0.2,1.2,0.3,1.9,0.5c0.7,0.1,1.4,0.2,2.2,0.2c1.3,0,2.4-0.2,3.5-0.5
			c1.1-0.3,2-0.8,2.7-1.4c0.8-0.6,1.4-1.3,1.8-2.2c0.4-0.9,0.6-1.9,0.6-3C1318.4,679.6,1318.3,678.8,1318,678.1z"/>
	</g>
</g>
<path class="st1" d="M102.9,605.6c5.1-0.5,10.3-1.5,15.5-2.8c10.4-2.6,21.3-4.2,32.5-4.7v-42.6c0-4.7,1.8-7.7,5.5-9
	c3.6-1.3,5.5-2.9,5.5-4.8c0-1.5-0.8-2.3-2.3-2.3h-43.9c-1.5,0-2.3,0.8-2.3,2.3c0,1.5,1.9,3.1,5.7,4.7c3.8,1.6,6.7,2.9,8.7,3.9
	c2.2,1.2,3.4,3,3.5,5.3v20.6c-4.6,8-10.3,13.4-17.1,16c-5.7,2.2-12.7,3.3-21,3.3c-1.6,0-3.3,0-5-0.1c-18-0.9-32.9-8.7-44.7-23.5
	c-11.9-14.8-17.8-30.2-17.8-46.1c0-24.7,6.4-42.8,19.1-54.1c12.7-11.3,27.2-17,43.5-17c11.7,0,21,1.7,28.1,5
	c7,3.4,12.9,10.1,17.7,20.3c1,2,2,3,2.8,3.1h0.3c1.2,0,1.9-0.7,2.2-2l2.6-23c-8.5-5.5-17.5-9.1-27-11c-9.5-1.9-18.4-2.8-26.8-2.8
	c-23.4,0-43.5,7.4-60.3,22.3C11,481.2,2.6,501,2.6,525.6c0,25.3,8.7,45,26,59.4c17.3,14.3,37.2,21.5,59.6,21.5
	C92.9,606.4,97.8,606.1,102.9,605.6z"/>
<path class="st1" d="M363.4,455.7c3.7-1.3,5.5-2.9,5.5-4.8c0-1.5-0.8-2.3-2.3-2.3h-30.6l-58,122.9l-59.9-122.9H189
	c-1.5,0-2.3,0.8-2.3,2.3c0,1.9,1.8,3.5,5.5,4.8c3.6,1.3,5.5,4.3,5.5,9v121.7c0,4.7-1.8,7.8-5.5,9c-3.7,1.3-5.5,2.8-5.5,4.7
	c0,1.5,0.8,2.3,2.3,2.3h27.8c1.5,0,2.3-0.8,2.3-2.3c0-1.8-1.8-3.4-5.5-4.7c-3.7-1.3-5.5-4.3-5.5-9V474.2l62.5,131.4h4.3l63.2-136.6
	v117.3c0,4.7-1.8,7.8-5.5,9c-3.7,1.3-5.5,2.8-5.5,4.7c0,1.5,0.8,2.3,2.3,2.3h37.1c1.5,0,2.3-0.8,2.3-2.3c0-1.8-1.8-3.4-5.5-4.7
	c-3.7-1.3-5.5-4.3-5.5-9V464.7C357.9,460,359.7,457,363.4,455.7z"/>
<path class="st1" d="M475.1,529.2c5.8-0.4,12-1.9,18.5-4.7c6.5-2.7,11.6-6.7,15.2-11.9c4.6-6.6,7-14,7.1-22.2
	c0-8.7-1.8-16.1-5.3-22.3c-4.5-7.7-10.8-12.8-18.9-15.5c-8.2-2.7-16-4-23.5-4h-64.6c-1.5,0-2.3,0.8-2.3,2.3c0,1.9,1.8,3.5,5.5,4.8
	c3.6,1.3,5.5,4.3,5.5,9v121.7c0,4.7-1.8,7.8-5.5,9c-3.7,1.3-5.5,2.8-5.5,4.7c0,1.5,0.8,2.3,2.3,2.3h37.1c1.5,0,2.2-0.8,2.2-2.3
	c0-1.8-1.8-3.4-5.5-4.7c-3.7-1.3-5.5-4.3-5.5-9v-57.1h17.5c4,5,9,11.7,15,19.9c6,8.3,11.8,16.3,17.5,24.2c5.7,7.9,10.7,14.7,15,20.4
	c4.3,5.7,6.8,8.5,7.4,8.5h29.2c1.3,0,2.1-0.8,2.3-2.3v-0.3c0-1.3-1-2.1-3.1-2.3c-3.3-0.3-5.9-1.3-8-3L475.1,529.2z M459.5,457.7
	c10.9,0,19.7,3.1,26.2,9.3c6.1,6,9.1,13.4,9.1,22.3c0,9.3-2.9,16.7-8.8,22.3c-3.7,3.7-8.2,6.3-13.4,7.8c-5.2,1.5-10.3,2.2-15.3,2.2
	h-25.4v-64H459.5z"/>
<path class="st1" d="M589.6,464.7c0-4.7,1.8-7.7,5.5-9c3.6-1.3,5.5-2.9,5.5-4.8c0-1.5-0.7-2.3-2.2-2.3h-37.1c-1.5,0-2.3,0.8-2.3,2.3
	c0,1.9,1.8,3.5,5.5,4.8c3.6,1.3,5.5,4.3,5.5,9v121.7c0,4.7-1.8,7.8-5.5,9c-3.7,1.3-5.5,2.8-5.5,4.7c0,1.5,0.8,2.3,2.3,2.3h100.3
	l8-28.1c0.1-0.6,0.2-1.4,0.2-2.3c0-1.5-0.8-2.3-2.3-2.3c-0.7,0-1.8,0.8-3.1,2.4c-2.4,2.9-6,7-10.7,12.2c-4.7,5.2-10.5,7.8-17.2,7.8
	h-46.8L589.6,464.7z"/>
<path class="st2" d="M686.8,177.2c-32.5,6.8-72,1.3-105.9-6.5c-0.1,0-0.1,0-0.2,0c-3.1-0.7-6.2-1.5-9.3-2.3c-0.1,0-0.2-0.1-0.3-0.1
	c-3-0.8-5.9-1.5-8.7-2.3c-0.2,0-0.3-0.1-0.5-0.1c-2.8-0.8-5.5-1.5-8.1-2.3c-0.2-0.1-0.4-0.1-0.7-0.2c-1.3-0.4-2.6-0.7-3.8-1.1
	c0,0,0,0,0,0c-1.2-0.4-2.4-0.7-3.6-1.1c-0.3-0.1-0.5-0.2-0.8-0.2c-1.2-0.4-2.3-0.7-3.5-1.1c0,0-0.1,0-0.1,0c-1.1-0.3-2.2-0.7-3.3-1
	c-0.3-0.1-0.5-0.2-0.8-0.3c-1.1-0.3-2.1-0.7-3.2-1c-16.9-5.4-29.5-8.4-29.5-8.4c-1.6-0.4-3.1-0.9-4.6-1.3c-0.7-0.2-1.4-0.4-2-0.5
	c-0.6-0.2-1.2-0.3-1.9-0.5c-1.9-0.5-3.7-0.9-5.6-1.3c16.1-72,72.5-126.9,142.3-142.8c22.6-4.4,53.5,2.8,76.3,19.2
	C758,60,760.2,146.1,686.8,177.2z M719,131.2l-52.9-77.1c-6.3-2.2-12-2.6-16.9-2.2l62.4,90.8C717,139.8,718.3,136.4,719,131.2z
	 M687.2,161.8c3.8-0.7,7.8-2.4,9.8-8.2l-65.6-95.4c-3.5,2.6-6.7,5.5-9.5,8.7L687.2,161.8z M654.9,169.2c5.2-0.4,10-1.2,14.1-1.9
	l-57.7-83.9c-2.3,4.7-4.1,9.5-5.5,14.4L654.9,169.2z M600.3,144.5l12.2,17.7c6.2,3.3,13,5.3,19.8,6.4L601,123
	C600.2,131.5,600.1,139,600.3,144.5z M550,150.2c12.4,3.7,26,7.5,40.4,11.1c0-0.1,0-0.2,0-0.3C579.5,52.5,642,25.6,642,25.6
	C576.1,29.4,556.1,105,550,150.2z M676,31.3c-33-11.4-49.1,20-49.1,20c16.2-12.1,27.7-8.6,36.8-5.8c29.8,11.6,40.9-17.6,40.9-17.6
	C701.3,29.2,690.2,36.5,676,31.3z M704.3,55.2c-3.3,2.1-7.6,3.9-12,5l34,50.2c4.2-6.5,4.1-12.8,4.7-16.7L704.3,55.2z M559.6,205
	c0.9,0.3,1.8,0.5,2.7,0.8c2,0.6,4.1,1.2,6.1,1.7c0.6,0.2,1.3,0.4,1.9,0.5c2.2,0.6,4.3,1.2,6.4,1.8c0.5,0.1,1,0.3,1.5,0.4
	c2.2,0.6,4.4,1.2,6.6,1.7c0.4,0.1,0.8,0.2,1.3,0.3c2.2,0.6,4.4,1.1,6.6,1.6c0.3,0.1,0.7,0.2,1,0.2c2.2,0.5,4.5,1,6.7,1.5
	c0.3,0.1,0.5,0.1,0.8,0.2c2.3,0.5,4.5,0.9,6.8,1.3c0.1,0,0.3,0.1,0.4,0.1c2.3,0.4,4.6,0.8,6.9,1.1c1.3,0.1,2.6,0.2,3.9,0.3
	c1.3,0.1,2.5,0.2,3.8,0.2c-27,29.6-42.9,76.2-7.1,147.7c-40.4-13.3-74.2-39.6-97.2-73.5c35.8-15.1,54.1-42.7,63.4-69.2
	c-12.1-3.4-24.3-7.1-36.7-10.8c-5.1,35.9-18.3,60.1-30.4,74.3c-18.8-30-29.4-65.5-28.8-102.9l0,0c23.2,5.3,46.8,12.6,69.5,19.3
	C556.8,204.2,558.2,204.6,559.6,205z M520.3,207.9c-3.7-1.5-10.9-4.1-20.2-6.9l28.4,41.3c1.5-4.7,2.9-10.2,4-16.6L520.3,207.9z"/>
<path class="st3" d="M789.7,464.7c0-4.7,1.8-7.7,5.5-9c3.6-1.3,5.5-2.9,5.5-4.8c0-1.5-0.7-2.3-2.2-2.3h-37.1c-1.5,0-2.3,0.8-2.3,2.3
	c0,1.9,1.8,3.5,5.5,4.8s5.5,4.3,5.5,9v121.7c0,4.7-1.8,7.8-5.5,9c-3.7,1.3-5.5,2.8-5.5,4.7c0,1.5,0.8,2.3,2.3,2.3h100.3l8-28.1
	c0.1-0.6,0.2-1.4,0.2-2.3c0-1.5-0.8-2.3-2.3-2.3c-0.7,0-1.8,0.8-3.1,2.4c-2.4,2.9-6,7-10.7,12.2c-4.7,5.2-10.5,7.8-17.2,7.8h-46.8
	L789.7,464.7z"/>
<path class="st3" d="M969.7,446.1l-62.1,140.3c-1.2,2.7-3.2,5-5.9,6.9c-1.3,0.9-2.6,1.6-3.9,2.2c-1.3,0.6-2.5,1.2-3.6,1.7
	c-2,0.9-3.3,1.9-3.7,2.8c-0.1,0.6-0.2,0.9-0.2,1.1c0.1,0.3,0.2,0.5,0.2,0.5c0.3,0.4,0.8,0.7,1.5,0.7h28.3c1.1,0,1.9-0.8,2.4-2.3
	c0.1-0.3,0.2-0.5,0.2-0.8c0-0.2,0-0.6-0.1-1.2c-0.2-0.7-0.6-1.3-1.1-1.9c-0.5-0.6-0.9-1.4-1.1-2.4c-0.2-0.7-0.3-1.3-0.3-2.1
	c0-0.5,0-1,0.1-1.5c0.1-1.2,0.4-2.5,1.1-3.9c2.6-6.2,5.2-12.4,7.8-18.7c2.6-6.2,5.2-12.5,7.8-18.8h63.8l16.2,37.5
	c0.6,1.5,0.9,2.8,0.9,4c0,0.7-0.1,1.4-0.3,2c-0.4,1.2-1.1,2.2-2.1,3c-0.9,0.7-1.8,1.4-2.4,2.1c-0.9,0.7-1.3,1.4-1.3,2.1
	c0,0.2,0.1,0.4,0.2,0.7c0.1,0.6,0.6,1.1,1.3,1.6c0.7,0.4,1.3,0.7,2,0.7h37c0.7,0,1.1-0.2,1.3-0.7c0.1-0.3,0.2-0.5,0.2-0.8
	c0-0.3-0.1-0.6-0.2-0.9c-0.2-0.5-0.7-1-1.4-1.5c-1-0.7-2.4-1.4-4-2.1c-1.6-0.7-3.3-1.6-5-2.7c-3.2-2.2-5.4-4.6-6.5-7.3
	c-3.7-8.5-8.3-19.1-13.6-31.5c-5.4-12.5-10.9-25.3-16.6-38.5c-5.7-13.2-11.3-26.1-16.6-38.5c-5.4-12.5-9.9-23-13.5-31.6H969.7z
	 M940.8,539.9c4.6-11.1,9.2-22.2,13.9-33.3c4.6-11.1,9.3-22.2,14-33.4l28.6,66.7H940.8z"/>
<path class="st3" d="M1079.4,448.6c-1.5,0-2.3,0.8-2.3,2.3c0,1.9,1.8,3.5,5.5,4.8c3.6,1.3,5.5,4.3,5.5,8.9v121.8
	c0,4.7-1.8,7.7-5.5,9c-3.7,1.3-5.5,2.9-5.5,4.7c0,1.5,0.8,2.3,2.3,2.3h68.7c6.4,0,13.3-1.4,20.9-4.3c7.6-2.9,13.5-7.3,17.6-13.2
	c4.8-6.8,7.3-14.5,7.4-23.2c0-9.1-1.8-16.9-5.5-23.4c-4.8-8.2-12.4-14.1-22.8-17.4c6.6-3,11.4-6.8,14.6-11.4
	c4.4-6.1,6.6-13.1,6.8-21c0-8.3-1.7-15.4-5-21.2c-4.2-7.3-10.1-12.2-17.9-14.7c-7.8-2.5-15.2-3.8-22.4-3.8H1079.4z M1134.8,527.1
	c11.5,0,20.6,3.3,27.5,9.9c6.4,6.3,9.5,14.1,9.5,23.4c0,9.7-3,17.5-9.1,23.4c-3.9,3.9-8.6,6.6-14.1,8.2c-5.4,1.6-10.8,2.4-16.2,2.4
	h-24.7v-67.2H1134.8z M1107.8,457.2h25.8c10.3,0,18.5,3,24.7,8.9c5.8,5.5,8.7,12.6,8.7,21.2c0,8.8-2.7,15.9-8.2,21.2
	c-5.3,5-12.2,8-20.8,9h-30.2V457.2z"/>
<path class="st3" d="M1258.8,596.5c-9,0-16.4-1.4-22.2-4.3c-7.1-3.4-13-10.2-17.6-20.4c-0.9-1.9-1.9-3-2.7-3.2c-1,0-1.7,0.5-2.3,1.4
	c-0.5,0.7-0.8,1.5-0.8,2.2c0,0.4,0.1,0.7,0.2,1.1l10.4,28.9c9.3,2.8,19,4.3,29.1,4.3c1.5,0,3.1,0,4.7-0.1c7.3-0.3,14.2-1.5,20.6-3.5
	c8-2.6,15.2-6.5,21.8-11.9c12.7-10.4,19.1-23.4,19.1-39c0-5.8-1-11.1-3-15.9c-1.7-3.6-3.8-6.9-6.5-9.9c-3.6-3.9-9-7-16.3-9.3
	c-4.4-1.3-8.9-2.3-13.5-3c-4.6-0.7-9-1.4-13.2-2c-2.8-0.4-5.6-0.9-8.2-1.4c-2.6-0.5-4.9-1-6.7-1.5c-3.4-0.8-6.5-2.3-9.3-4.4
	c-3.7-2.6-6.4-6.4-7.9-11.3c-0.9-2.4-1.3-5-1.3-7.9c0-2.1,0.3-4.3,0.8-6.7c0.7-3.2,1.6-6,2.7-8.4c1.5-3,3.1-5.5,5-7.6
	c2-2.1,4.8-4.1,8.2-5.8c5.3-2.4,11.2-3.6,18-3.6h1.8c6.9,0.3,13.4,2.8,19.4,7.4c6,4.6,10.5,10.2,13.7,16.8c0.9,2,1.8,3,2.7,3.1h0.4
	c1.2,0,1.9-0.7,2.1-2l2.6-23c-11.4-7.4-25.2-11.4-41.5-12.2h-3.3c-14.9,0-27.2,4.5-37,13.6c-9.6,8.7-14.3,19.9-14.3,33.6
	c0,7,1.6,13.5,4.8,19.4c3.2,6,8.1,10.5,14.6,13.5c7.2,3.5,14.9,5.7,22.9,6.6c8.1,0.9,16,2.4,23.7,4.5c3.9,1.2,7.3,2.8,10.1,4.8
	c6.1,4.4,9.2,10.7,9.4,18.9v1.2c0,7.7-1.7,14.3-5.1,19.8c-3.3,5.3-7.6,9.3-13.1,12c-5.4,2.7-11.1,4.3-17,4.7
	C1262.7,596.5,1260.7,596.5,1258.8,596.5L1258.8,596.5z"/>
<path class="st4" d="M861.3,208.4c-11,103.8-104,179.1-207.8,168.1c-3.6-0.4-7.1-1.1-10.6-1.7c179.8-27.4,177.4-185,177.4-185
	c-35,150.9-171.5,163.1-191.3,162.9c-8.8-80.1,28.2-110,77.2-135c49-25,66.8-43.7,71.2-85.2c7.5-80.6-63-122.8-77.9-130.8
	C800,15.6,872,106.7,861.3,208.4z"/>
</svg>
